<?xml version="1.0" encoding="UTF-8" standalone="no"?><!DOCTYPE svg PUBLIC "-//W3C//DTD SVG 1.1//EN" "http://www.w3.org/Graphics/SVG/1.1/DTD/svg11.dtd"><svg width="100%" height="100%" viewBox="0 0 24 24" version="1.1" xmlns="http://www.w3.org/2000/svg" xmlns:xlink="http://www.w3.org/1999/xlink" xml:space="preserve" xmlns:serif="http://www.serif.com/" style="fill-rule:evenodd;clip-rule:evenodd;stroke-linejoin:round;stroke-miterlimit:2;"><path d="M6.774,7.309c-0.016,-0.174 -0.024,-0.351 -0.024,-0.53c0,-3.054 2.352,-5.533 5.25,-5.533c2.898,-0 5.25,2.479 5.25,5.533c0,0.179 -0.008,0.356 -0.024,0.53c1.518,0.158 2.613,0.63 3.324,1.421c1.04,1.16 1.01,2.71 0.9,3.77l-0.75,6.01c-0.22,2.09 -1.08,4.24 -5.7,4.24l-6,0c-4.62,0 -5.48,-2.15 -5.7,-4.24l-0.75,-6.01c-0.11,-1.06 -0.14,-2.61 0.9,-3.77c0.711,-0.791 1.806,-1.263 3.324,-1.421Zm8.226,13.951c3.6,0 4.04,-1.31 4.21,-2.9l0.75,-6.01c0.13,-1.22 -0.03,-2.05 -0.52,-2.6c-0.59,-0.67 -1.75,-1 -3.44,-1l-8,0c-1.69,0 -2.85,0.33 -3.44,1c-0.49,0.55 -0.65,1.38 -0.52,2.6l0.75,6.01c0.17,1.59 0.61,2.9 4.21,2.9l6,0Zm0.598,-8.11c-0.56,-0 -1.01,-0.45 -1.01,-1c-0,-0.55 0.45,-1 1,-1c0.55,-0 1,0.45 1,1c-0,0.55 -0.44,1 -0.99,1Zm-7.178,-0c-0.56,-0 -1.01,-0.45 -1.01,-1c0,-0.55 0.45,-1 1,-1c0.55,-0 1,0.45 1,1c0,0.55 -0.44,1 -0.99,1Zm-0.209,-5.9l7.578,0c0.017,-0.155 0.026,-0.312 0.026,-0.471c-0,-2.219 -1.71,-4.021 -3.815,-4.021c-2.105,0 -3.815,1.802 -3.815,4.021c0,0.159 0.009,0.316 0.026,0.471Z" style="fill:#292d32;fill-rule:nonzero;"/></svg>