<?xml version="1.0" encoding="UTF-8" standalone="no"?>
<!DOCTYPE svg PUBLIC "-//W3C//DTD SVG 1.1//EN" "http://www.w3.org/Graphics/SVG/1.1/DTD/svg11.dtd">
<svg width="100%" height="100%" viewBox="0 0 24 24" version="1.1" xmlns="http://www.w3.org/2000/svg" xmlns:xlink="http://www.w3.org/1999/xlink" xml:space="preserve" xmlns:serif="http://www.serif.com/" style="fill-rule:evenodd;clip-rule:evenodd;stroke-linejoin:round;stroke-miterlimit:2;">
    <path d="M7.25,2L7.25,5C7.25,5.414 7.586,5.75 8,5.75C8.414,5.75 8.75,5.414 8.75,5L8.75,2C8.75,1.586 8.414,1.25 8,1.25C7.586,1.25 7.25,1.586 7.25,2Z" style="fill:rgb(41,45,50);"/>
    <path d="M15.25,2L15.25,5C15.25,5.414 15.586,5.75 16,5.75C16.414,5.75 16.75,5.414 16.75,5L16.75,2C16.75,1.586 16.414,1.25 16,1.25C15.586,1.25 15.25,1.586 15.25,2Z" style="fill:rgb(41,45,50);"/>
    <path d="M3.5,9.84L20.5,9.84C20.914,9.84 21.25,9.504 21.25,9.09C21.25,8.676 20.914,8.34 20.5,8.34L3.5,8.34C3.086,8.34 2.75,8.676 2.75,9.09C2.75,9.504 3.086,9.84 3.5,9.84Z" style="fill:rgb(41,45,50);"/>
    <path d="M21.75,8.5C21.75,6.785 21.291,5.365 20.362,4.365C19.43,3.36 18.008,2.75 16,2.75L8,2.75C5.992,2.75 4.57,3.36 3.638,4.365C2.709,5.365 2.25,6.785 2.25,8.5L2.25,17C2.25,18.715 2.709,20.135 3.638,21.135C4.57,22.14 5.992,22.75 8,22.75L16,22.75C18.008,22.75 19.43,22.14 20.362,21.135C21.291,20.135 21.75,18.715 21.75,17L21.75,8.5ZM20.25,8.5L20.25,17C20.25,18.285 19.959,19.365 19.263,20.115C18.57,20.861 17.492,21.25 16,21.25C16,21.25 8,21.25 8,21.25C6.508,21.25 5.43,20.861 4.737,20.115C4.041,19.365 3.75,18.285 3.75,17C3.75,17 3.75,8.5 3.75,8.5C3.75,7.215 4.041,6.135 4.737,5.385C5.43,4.639 6.508,4.25 8,4.25C8,4.25 16,4.25 16,4.25C17.492,4.25 18.57,4.639 19.263,5.385C19.959,6.135 20.25,7.215 20.25,8.5Z" style="fill:rgb(41,45,50);"/>
    <g transform="matrix(0.884309,0,0,0.897758,1.29671,2.03224)">
        <ellipse cx="7.889" cy="12.885" rx="1.113" ry="1.109" style="fill:rgb(41,45,50);"/>
    </g>
    <g transform="matrix(0.884309,0,0,0.897758,5.02248,2.13025)">
        <ellipse cx="7.889" cy="12.885" rx="1.113" ry="1.109" style="fill:rgb(41,45,50);"/>
    </g>
    <g transform="matrix(0.884309,0,0,0.897758,8.72326,2.13153)">
        <ellipse cx="7.889" cy="12.885" rx="1.113" ry="1.109" style="fill:rgb(41,45,50);"/>
    </g>
    <g transform="matrix(0.884309,0,0,0.897758,8.71883,5.14305)">
        <ellipse cx="7.889" cy="12.885" rx="1.113" ry="1.109" style="fill:rgb(41,45,50);"/>
    </g>
    <g transform="matrix(0.884309,0,0,0.897758,5.01207,5.14006)">
        <ellipse cx="7.889" cy="12.885" rx="1.113" ry="1.109" style="fill:rgb(41,45,50);"/>
    </g>
    <g transform="matrix(0.884309,0,0,0.897758,1.32742,5.12966)">
        <ellipse cx="7.889" cy="12.885" rx="1.113" ry="1.109" style="fill:rgb(41,45,50);"/>
    </g>
</svg>
