<?xml version="1.0" encoding="UTF-8" standalone="no"?>
<!DOCTYPE svg PUBLIC "-//W3C//DTD SVG 1.1//EN" "http://www.w3.org/Graphics/SVG/1.1/DTD/svg11.dtd">
<svg width="100%" height="100%" viewBox="0 0 24 24" version="1.1" xmlns="http://www.w3.org/2000/svg" xmlns:xlink="http://www.w3.org/1999/xlink" xml:space="preserve" xmlns:serif="http://www.serif.com/" style="fill-rule:evenodd;clip-rule:evenodd;stroke-linejoin:round;stroke-miterlimit:2;">
    <path d="M2,9.255L22,9.255C22.414,9.255 22.75,8.919 22.75,8.505C22.75,8.091 22.414,7.755 22,7.755L2,7.755C1.586,7.755 1.25,8.091 1.25,8.505C1.25,8.919 1.586,9.255 2,9.255Z" style="fill:rgb(41,45,50);"/>
    <path d="M6,17.255L8,17.255C8.414,17.255 8.75,16.919 8.75,16.505C8.75,16.091 8.414,15.755 8,15.755L6,15.755C5.586,15.755 5.25,16.091 5.25,16.505C5.25,16.919 5.586,17.255 6,17.255Z" style="fill:rgb(41,45,50);"/>
    <path d="M10.5,17.255L14.5,17.255C14.914,17.255 15.25,16.919 15.25,16.505C15.25,16.091 14.914,15.755 14.5,15.755L10.5,15.755C10.086,15.755 9.75,16.091 9.75,16.505C9.75,16.919 10.086,17.255 10.5,17.255Z" style="fill:rgb(41,45,50);"/>
    <path d="M6.44,2.755C4.391,2.755 3.131,3.09 2.361,3.85C1.59,4.613 1.25,5.862 1.25,7.895L1.25,16.115C1.25,18.148 1.59,19.397 2.362,20.159C3.131,20.918 4.392,21.251 6.442,21.245C6.44,21.245 17.56,21.245 17.56,21.245C19.609,21.245 20.869,20.91 21.639,20.149C22.41,19.387 22.75,18.137 22.75,16.105L22.75,7.895C22.75,5.862 22.41,4.613 21.637,3.85C20.867,3.09 19.604,2.755 17.55,2.755L6.44,2.755ZM6.44,4.255L17.55,4.255C19.057,4.255 20.018,4.36 20.583,4.917C21.145,5.472 21.25,6.417 21.25,7.895C21.25,7.895 21.25,16.105 21.25,16.105C21.25,17.583 21.145,18.528 20.584,19.083C20.02,19.64 19.062,19.745 17.56,19.745L6.438,19.745C4.937,19.749 3.979,19.647 3.416,19.091C2.854,18.537 2.75,17.593 2.75,16.115L2.75,7.895C2.75,6.416 2.855,5.472 3.416,4.917C3.98,4.36 4.938,4.255 6.44,4.255Z" style="fill:rgb(41,45,50);"/>
</svg>
