<?xml version="1.0" encoding="UTF-8" standalone="no"?><!DOCTYPE svg PUBLIC "-//W3C//DTD SVG 1.1//EN" "http://www.w3.org/Graphics/SVG/1.1/DTD/svg11.dtd"><svg width="100%" height="100%" viewBox="0 0 24 24" version="1.1" xmlns="http://www.w3.org/2000/svg" xmlns:xlink="http://www.w3.org/1999/xlink" xml:space="preserve" xmlns:serif="http://www.serif.com/" style="fill-rule:evenodd;clip-rule:evenodd;stroke-linejoin:round;stroke-miterlimit:2;"><path d="M10.728,12l-2.76,2.76c-0.351,0.351 -0.351,0.921 0,1.272c0.351,0.351 0.921,0.351 1.272,-0l2.76,-2.76l2.76,2.76c0.351,0.351 0.921,0.351 1.272,-0c0.351,-0.351 0.351,-0.921 -0,-1.272l-2.76,-2.76l2.76,-2.76c0.351,-0.351 0.351,-0.921 -0,-1.272c-0.351,-0.351 -0.921,-0.351 -1.272,0l-2.76,2.76l-2.76,-2.76c-0.351,-0.351 -0.921,-0.351 -1.272,0c-0.351,0.351 -0.351,0.921 0,1.272l2.76,2.76Z"/></svg>