<?xml version="1.0" encoding="UTF-8" standalone="no"?>
<!DOCTYPE svg PUBLIC "-//W3C//DTD SVG 1.1//EN" "http://www.w3.org/Graphics/SVG/1.1/DTD/svg11.dtd">
<svg width="100%" height="100%" viewBox="0 0 24 24" version="1.1" xmlns="http://www.w3.org/2000/svg" xmlns:xlink="http://www.w3.org/1999/xlink" xml:space="preserve" xmlns:serif="http://www.serif.com/" style="fill-rule:evenodd;clip-rule:evenodd;stroke-linejoin:round;stroke-miterlimit:2;">
    <g transform="matrix(1.09405,0,0,1.08435,-1.12257,0.656839)">
        <path d="M12.72,3.08L4.508,11.772C4.107,12.198 3.718,13.038 3.64,13.62L3.268,16.876C3.173,17.729 3.456,18.439 3.95,18.908C4.442,19.375 5.163,19.618 6.006,19.473C6.005,19.473 9.225,18.923 9.225,18.923C9.226,18.923 9.228,18.922 9.23,18.922C9.812,18.818 10.624,18.389 11.031,17.949C11.031,17.949 19.24,9.26 19.24,9.26C20.081,8.371 20.658,7.403 20.731,6.364C20.805,5.312 20.387,4.145 19.061,2.89C19.06,2.89 19.06,2.889 19.059,2.889C17.742,1.649 16.561,1.301 15.519,1.434C14.49,1.565 13.559,2.193 12.72,3.08ZM13.8,4.12C14.381,3.507 14.995,3.02 15.706,2.929C16.404,2.839 17.158,3.16 18.04,3.99C18.923,4.826 19.29,5.558 19.241,6.258C19.191,6.972 18.739,7.608 18.16,8.22L9.94,16.92C9.725,17.156 9.285,17.382 8.972,17.438L5.754,17.987C5.437,18.042 5.158,17.985 4.973,17.81C4.789,17.636 4.717,17.361 4.752,17.044C4.752,17.044 5.121,13.815 5.121,13.815C5.165,13.497 5.374,13.041 5.592,12.808L13.8,4.12Z" style="fill:rgb(41,45,50);"/>
    </g>
    <g transform="matrix(1.09405,0,0,1.08435,-1.12257,0.656839)">
        <path d="M11.152,5.167C11.635,8.264 14.146,10.635 17.266,10.95C17.676,10.991 18.042,10.689 18.083,10.275C18.124,9.861 17.824,9.492 17.414,9.45C14.974,9.205 13.005,7.356 12.628,4.933C12.564,4.522 12.181,4.241 11.774,4.306C11.367,4.37 11.088,4.756 11.152,5.167Z" style="fill:rgb(41,45,50);"/>
    </g>
</svg>
