<?xml version="1.0" encoding="UTF-8" standalone="no"?>
<!DOCTYPE svg PUBLIC "-//W3C//DTD SVG 1.1//EN" "http://www.w3.org/Graphics/SVG/1.1/DTD/svg11.dtd">
<svg width="100%" height="100%" viewBox="0 0 24 24" version="1.1" xmlns="http://www.w3.org/2000/svg"
    xmlns:xlink="http://www.w3.org/1999/xlink" xml:space="preserve" xmlns:serif="http://www.serif.com/"
    style="fill-rule:evenodd;clip-rule:evenodd;stroke-linejoin:round;stroke-miterlimit:2;">
    <path
        d="M18.564,14.087C18.568,14.082 18.573,14.078 18.577,14.073C18.809,13.835 19.129,13.7 19.48,13.7C19.48,13.7 21.5,13.7 21.5,13.7C21.914,13.7 22.25,13.364 22.25,12.95L22.25,11.51C22.25,9.027 20.223,7 17.74,7C17.74,7 6.26,7 6.26,7C3.777,7 1.75,9.027 1.75,11.51C1.75,11.51 1.75,18.24 1.75,18.24C1.75,20.723 3.777,22.75 6.26,22.75L17.74,22.75C20.223,22.75 22.25,20.723 22.25,18.24C22.25,18.24 22.25,17.05 22.25,17.05C22.25,16.636 21.914,16.3 21.5,16.3L19.6,16.3C18.904,16.3 18.245,15.814 18.187,15.118C18.187,15.115 18.187,15.112 18.187,15.109C18.149,14.714 18.3,14.344 18.564,14.087ZM17.509,13.02C16.937,13.582 16.612,14.388 16.693,15.248C16.818,16.709 18.138,17.8 19.6,17.8L20.75,17.8C20.75,17.8 20.75,18.24 20.75,18.24C20.75,19.897 19.397,21.25 17.74,21.25C17.74,21.25 6.26,21.25 6.26,21.25C4.603,21.25 3.25,19.897 3.25,18.24L3.25,11.51C3.25,9.853 4.603,8.5 6.26,8.5L17.74,8.5C19.397,8.5 20.75,9.853 20.75,11.51L20.75,12.2C20.75,12.2 19.48,12.2 19.48,12.2C18.714,12.2 18.017,12.502 17.509,13.02L17.509,13.02Z"
        style="fill:rgb(70,72,81);" />
    <path
        d="M3.25,12.41L3.25,7.84C3.25,6.963 3.787,6.181 4.605,5.872L12.546,2.871C13.296,2.587 14.1,3.145 14.1,3.95L14.1,7.75C14.1,8.164 14.436,8.5 14.85,8.5C15.264,8.5 15.6,8.164 15.6,7.75L15.6,3.95C15.6,2.095 13.744,0.813 12.014,1.469L4.075,4.469C2.673,4.999 1.75,6.337 1.75,7.84C1.75,7.84 1.75,12.41 1.75,12.41C1.75,12.824 2.086,13.16 2.5,13.16C2.914,13.16 3.25,12.824 3.25,12.41Z"
        style="fill:rgb(70,72,81);" />
    <path
        d="M23.309,13.97C23.309,13.019 22.554,12.235 21.586,12.201L19.479,12.2C18.713,12.2 18.016,12.502 17.508,13.02C16.936,13.582 16.611,14.388 16.692,15.249C16.817,16.709 18.137,17.8 19.599,17.8L21.586,17.8C22.554,17.765 23.309,16.981 23.309,16.03L23.309,13.97ZM21.809,13.97L21.809,16.03C21.809,16.172 21.695,16.284 21.553,16.299C21.541,16.3 19.599,16.3 19.599,16.3C18.902,16.3 18.244,15.814 18.186,15.118C18.186,15.115 18.186,15.112 18.185,15.109C18.148,14.714 18.299,14.344 18.563,14.087C18.567,14.082 18.572,14.078 18.576,14.073C18.808,13.835 19.128,13.7 19.479,13.7L21.541,13.7C21.689,13.71 21.809,13.825 21.809,13.97Z"
        style="fill:rgb(70,72,81);" />
    <path
        d="M7,12.75L14,12.75C14.414,12.75 14.75,12.414 14.75,12C14.75,11.586 14.414,11.25 14,11.25L7,11.25C6.586,11.25 6.25,11.586 6.25,12C6.25,12.414 6.586,12.75 7,12.75Z"
        style="fill:rgb(70,72,81);" />
</svg>