<svg width="50" height="60" viewBox="0 0 50 60" fill="none" xmlns="http://www.w3.org/2000/svg">
<path fill-rule="evenodd" clip-rule="evenodd" d="M22.5703 21.3415C23.4071 20.5047 24.7639 20.5047 25.6007 21.3415L32.915 28.6558C33.7518 29.4926 33.7518 30.8494 32.915 31.6862L25.6007 39.0005C24.7639 39.8374 23.4071 39.8374 22.5703 39.0005C21.7334 38.1637 21.7334 36.8069 22.5703 35.9701L28.3693 30.171L22.5703 24.372C21.7334 23.5351 21.7334 22.1783 22.5703 21.3415Z" fill="#292d32"/>
<path fill-rule="evenodd" clip-rule="evenodd" d="M0 30.1702C0 28.9867 0.95939 28.0273 2.14286 28.0273H31.2C32.3835 28.0273 33.3429 28.9867 33.3429 30.1702C33.3429 31.3537 32.3835 32.3131 31.2 32.3131H2.14286C0.95939 32.3131 0 31.3537 0 30.1702Z" fill="#292d32"/>
<path fill-rule="evenodd" clip-rule="evenodd" d="M22.8572 7.14286C22.8572 5.95939 23.8166 5 25 5C31.7983 5 38.0612 7.31107 42.6401 11.6606C47.236 16.0264 50 22.3188 50 30C50 37.6812 47.236 43.9736 42.6401 48.3394C38.0612 52.6889 31.7983 55 25 55C23.8166 55 22.8572 54.0406 22.8572 52.8571C22.8572 51.6737 23.8166 50.7143 25 50.7143C30.8304 50.7143 35.996 48.7396 39.6885 45.2321C43.364 41.7406 45.7143 36.6045 45.7143 30C45.7143 23.3955 43.364 18.2594 39.6885 14.7679C35.996 11.2604 30.8304 9.28571 25 9.28571C23.8166 9.28571 22.8572 8.32632 22.8572 7.14286Z" fill="#292d32"/>
</svg>
