<?xml version="1.0" encoding="UTF-8" standalone="no"?><!DOCTYPE svg PUBLIC "-//W3C//DTD SVG 1.1//EN" "http://www.w3.org/Graphics/SVG/1.1/DTD/svg11.dtd"><svg width="100%" height="100%" viewBox="0 0 32 32" version="1.1" xmlns="http://www.w3.org/2000/svg" xmlns:xlink="http://www.w3.org/1999/xlink" xml:space="preserve" xmlns:serif="http://www.serif.com/" style="fill-rule:evenodd;clip-rule:evenodd;stroke-linejoin:round;stroke-miterlimit:2;"><path d="M14.667,11.333c-0,-0.736 0.597,-1.333 1.333,-1.333c0.736,0 1.333,0.597 1.333,1.333c0,0.737 -0.597,1.334 -1.333,1.334c-0.736,-0 -1.333,-0.597 -1.333,-1.334Zm-0,4.667c-0,-0.736 0.597,-1.333 1.333,-1.333c0.736,-0 1.333,0.597 1.333,1.333c0,0.736 -0.597,1.333 -1.333,1.333c-0.736,0 -1.333,-0.597 -1.333,-1.333Zm1.333,3.333c-0.736,0 -1.333,0.597 -1.333,1.334c-0,0.736 0.597,1.333 1.333,1.333c0.736,0 1.333,-0.597 1.333,-1.333c0,-0.737 -0.597,-1.334 -1.333,-1.334Z" style="fill:#464851;"/></svg>