<?xml version="1.0" encoding="UTF-8" standalone="no"?><!DOCTYPE svg PUBLIC "-//W3C//DTD SVG 1.1//EN" "http://www.w3.org/Graphics/SVG/1.1/DTD/svg11.dtd"><svg width="100%" height="100%" viewBox="0 0 24 24" version="1.1" xmlns="http://www.w3.org/2000/svg" xmlns:xlink="http://www.w3.org/1999/xlink" xml:space="preserve" xmlns:serif="http://www.serif.com/" style="fill-rule:evenodd;clip-rule:evenodd;stroke-linejoin:round;stroke-miterlimit:2;"><path d="M12,12.812c-2.479,0 -4.672,0.778 -6.035,1.941c-1.017,0.868 -1.59,1.952 -1.59,3.109c0,1.158 0.573,2.242 1.59,3.11c1.363,1.162 3.556,1.94 6.035,1.94c2.479,0 4.672,-0.778 6.035,-1.94c1.017,-0.868 1.59,-1.952 1.59,-3.11c0,-1.157 -0.573,-2.241 -1.59,-3.109c-1.363,-1.163 -3.556,-1.941 -6.035,-1.941Zm0,1.5c2.074,0 3.921,0.61 5.061,1.582c0.652,0.556 1.064,1.227 1.064,1.968c0,0.742 -0.412,1.413 -1.064,1.969c-1.14,0.972 -2.987,1.581 -5.061,1.581c-2.074,0 -3.921,-0.609 -5.061,-1.581c-0.652,-0.556 -1.064,-1.227 -1.064,-1.969c0,-0.741 0.412,-1.412 1.064,-1.968c1.14,-0.972 2.987,-1.582 5.061,-1.582Zm-0,-13.176c-2.862,0 -5.185,2.323 -5.185,5.185c0,2.862 2.323,5.185 5.185,5.185c2.862,0 5.185,-2.323 5.185,-5.185c-0,-2.862 -2.323,-5.185 -5.185,-5.185Zm-0,1.5c2.034,0 3.685,1.651 3.685,3.685c-0,2.034 -1.651,3.685 -3.685,3.685c-2.034,0 -3.685,-1.651 -3.685,-3.685c0,-2.034 1.651,-3.685 3.685,-3.685Z"/></svg>