<?xml version="1.0" encoding="UTF-8" standalone="no"?>
<!DOCTYPE svg PUBLIC "-//W3C//DTD SVG 1.1//EN" "http://www.w3.org/Graphics/SVG/1.1/DTD/svg11.dtd"><svg width="100%"
  height="100%" viewBox="0 0 24 24" version="1.1" xmlns="http://www.w3.org/2000/svg"
  xmlns:xlink="http://www.w3.org/1999/xlink" xml:space="preserve" xmlns:serif="http://www.serif.com/"
  style="fill-rule:evenodd;clip-rule:evenodd;stroke-linejoin:round;stroke-miterlimit:2;">
  <path
    d="M20.25,12.5c0,-0.966 0.784,-1.75 1.75,-1.75c0.414,0 0.75,-0.336 0.75,-0.75l0,-1c0,-2.276 -0.366,-3.677 -1.22,-4.53c-0.853,-0.854 -2.254,-1.22 -4.53,-1.22c0,0 -10,0 -10,0c-2.276,0 -3.677,0.366 -4.53,1.22c-0.854,0.853 -1.22,2.254 -1.22,4.53c0,-0 0,0.5 0,0.5c0,0.414 0.336,0.75 0.75,0.75c0.966,0 1.75,0.784 1.75,1.75c0,0.966 -0.784,1.75 -1.75,1.75c-0.414,0 -0.75,0.336 -0.75,0.75l0,0.5c0,2.276 0.366,3.677 1.22,4.53c0.853,0.854 2.254,1.22 4.53,1.22l10,0c2.276,0 3.677,-0.366 4.53,-1.22c0.854,-0.853 1.22,-2.254 1.22,-4.53c0,-0.414 -0.336,-0.75 -0.75,-0.75c-0.966,0 -1.75,-0.784 -1.75,-1.75Zm-17.499,2.663c1.432,-0.339 2.499,-1.627 2.499,-3.163c-0,-1.536 -1.067,-2.824 -2.499,-3.163c0.008,-1.631 0.153,-2.68 0.779,-3.307c0.647,-0.647 1.745,-0.78 3.47,-0.78l10,0c1.725,0 2.823,0.133 3.47,0.78c0.647,0.647 0.78,1.745 0.78,3.47c0,-0 0,0.337 0,0.337c-1.433,0.339 -2.5,1.627 -2.5,3.163c0,1.533 1.063,2.819 2.492,3.161c-0.037,1.351 -0.212,2.249 -0.772,2.809c-0.647,0.647 -1.745,0.78 -3.47,0.78c0,0 -10,0 -10,0c-1.725,0 -2.823,-0.133 -3.47,-0.78c-0.626,-0.627 -0.771,-1.676 -0.779,-3.307Zm12.253,-1.419c0.555,0 1.005,0.451 1.005,1.006c0,0.555 -0.45,1.006 -1.006,1.006c-0.555,-0 -1.005,-0.451 -1.005,-1.006c-0,-0.555 0.45,-1.006 1.005,-1.006Zm-5.473,1.536l6,-6c0.293,-0.292 0.293,-0.768 0,-1.06c-0.292,-0.293 -0.768,-0.293 -1.06,-0l-6,6c-0.293,0.292 -0.293,0.768 -0,1.06c0.292,0.293 0.768,0.293 1.06,0Zm-0.535,-7.036c0.555,0 1.005,0.451 1.005,1.006c0,0.555 -0.45,1.006 -1.005,1.006c-0.556,-0 -1.006,-0.451 -1.006,-1.006c-0,-0.555 0.45,-1.006 1.006,-1.006Z" />
</svg>