<?xml version="1.0" encoding="UTF-8" standalone="no"?>
<!DOCTYPE svg PUBLIC "-//W3C//DTD SVG 1.1//EN" "http://www.w3.org/Graphics/SVG/1.1/DTD/svg11.dtd">
<svg width="100%" height="100%" viewBox="0 0 1000 776" version="1.1" xmlns="http://www.w3.org/2000/svg"
    xmlns:xlink="http://www.w3.org/1999/xlink" xml:space="preserve" xmlns:serif="http://www.serif.com/"
    style="fill-rule:evenodd;clip-rule:evenodd;stroke-linejoin:round;stroke-miterlimit:2;">
    <path
        d="M181.1,774.3L181.1,722.8C181.1,703.1 169.1,690.2 148.5,690.2C136.918,689.732 125.875,695.254 119.3,704.8C113.566,695.216 102.951,689.58 91.8,690.2C83.2,690.2 74.6,692.8 67.8,702.2L67.8,691.9L49.8,691.9L49.8,774.3L67.8,774.3L67.8,728.8C67.8,714.2 75.5,707.3 87.5,707.3C99.5,707.3 105.5,715 105.5,728.8L105.5,774.3L123.5,774.3L123.5,728.8C123.5,714.2 132.1,707.3 143.2,707.3C155.2,707.3 161.2,715 161.2,728.8L161.2,774.3L181.1,774.3ZM448.1,691.9L418.9,691.9L418.9,667L400.9,667L400.9,691.9L384.6,691.9L384.6,708.2L400.9,708.2L400.9,746C400.9,764.9 408.6,776 429.2,776C436.9,776 445.5,773.4 451.5,770L446.3,754.5C441.647,757.376 436.27,758.868 430.8,758.8C422.2,758.8 418.8,753.6 418.8,745.1L418.8,708.2L448,708.2L448,691.9L448.1,691.9ZM600.9,690.1C592.104,689.926 583.869,694.522 579.4,702.1L579.4,691.8L561.4,691.8L561.4,774.2L579.4,774.2L579.4,727.8C579.4,714.1 585.4,706.3 596.6,706.3C600,706.3 604.3,707.2 607.8,708L613,690.8C609.4,690.1 604.3,690.1 600.9,690.1ZM370,698.7C359.944,692.552 348.274,689.556 336.5,690.1C315.9,690.1 302.2,700.4 302.2,716.7C302.2,730.4 312.5,738.2 330.5,740.7L339.1,741.6C348.5,743.3 353.7,745.9 353.7,750.2C353.7,756.2 346.8,760.5 334.8,760.5C322.8,760.5 313.3,756.2 307.3,751.9L298.7,765.6C309.078,772.604 321.384,776.205 333.9,775.9C357.9,775.9 371.7,764.7 371.7,749.3C371.7,734.7 360.5,727 343.4,724.4L334.8,723.5C327.1,722.6 321.1,720.9 321.1,715.8C321.1,709.8 327.1,706.4 336.6,706.4C345.599,706.798 354.404,709.153 362.4,713.3L370,698.7ZM848.9,690.1C840.104,689.926 831.869,694.522 827.4,702.1L827.4,691.8L809.4,691.8L809.4,774.2L827.4,774.2L827.4,727.8C827.4,714.1 833.4,706.3 844.6,706.3C848,706.3 852.3,707.2 855.8,708L861,691C857.5,690.1 852.4,690.1 848.9,690.1ZM618.9,733.1C618.9,758 636.1,776 662.7,776C674.7,776 683.3,773.4 691.9,766.6L683.3,752C677.221,756.939 669.633,759.657 661.8,759.7C647.2,759.7 636.9,749.4 636.9,733.1C636.878,732.666 636.866,732.232 636.866,731.797C636.866,718.057 648.061,706.699 661.8,706.5C669.5,706.5 676.4,709.1 683.3,714.2L691.9,699.6C683.674,692.951 673.26,689.599 662.7,690.2C636.1,690.1 618.9,708.2 618.9,733.1ZM785.4,774.3L785.4,691.9L767.4,691.9L767.4,702.2C761.4,694.5 752.8,690.2 741.6,690.2C718.4,690.2 700.4,708.2 700.4,733.1C700.4,758 718.4,776 741.6,776C753.6,776 762.2,771.7 767.4,764L767.4,774.3L785.4,774.3ZM719.3,733.1C719.3,718.5 728.7,706.5 744.2,706.5C758.8,706.5 769.1,717.7 769.1,733.1C769.1,747.7 758.8,759.7 744.2,759.7C730.446,759.445 719.271,748.06 719.271,734.304C719.271,733.903 719.281,733.501 719.3,733.1ZM503.9,690.1C479.9,690.1 462.7,707.3 462.7,733C462.7,758.8 479.9,775.9 504.8,775.9C516.8,775.9 528.8,772.5 538.3,764.7L529.7,751.8C522.822,757.15 514.411,760.164 505.7,760.4C494.5,760.4 483.4,755.2 480.8,740.7L541.7,740.7L541.7,733.8C542.5,707.3 527,690.1 503.9,690.1ZM503.9,705.6C515.1,705.6 522.8,712.5 524.5,725.3L481.6,725.3C483.3,714.2 491,705.6 503.9,705.6ZM951.1,774.3L951.1,659.3L933.1,659.3L933.1,702.2C927.1,694.5 918.5,690.2 907.3,690.2C884.1,690.2 866.1,708.2 866.1,733.1C866.1,758 884.1,776 907.3,776C919.3,776 927.9,771.7 933.1,764L933.1,774.3L951.1,774.3ZM885,733.1C885,718.5 894.4,706.5 909.9,706.5C924.5,706.5 934.8,717.7 934.8,733.1C934.8,747.7 924.5,759.7 909.9,759.7C894.4,758.8 885,747.6 885,733.1ZM282.4,774.3L282.4,691.9L264.4,691.9L264.4,702.2C258.4,694.5 249.8,690.2 238.6,690.2C215.4,690.2 197.4,708.2 197.4,733.1C197.4,758 215.4,776 238.6,776C250.6,776 259.2,771.7 264.4,764L264.4,774.3L282.4,774.3ZM215.5,733.1C215.5,718.5 224.9,706.5 240.4,706.5C255,706.5 265.3,717.7 265.3,733.1C265.3,747.7 255,759.7 240.4,759.7C224.9,758.8 215.5,747.6 215.5,733.1Z"
        style="fill:rgb(0,0,0);fill-rule:nonzero;" />
    <rect x="364" y="66.1" width="270.4" height="485.8" style="fill:rgb(255,90,0);fill-rule:nonzero;" />
    <path
        d="M382,309C382,210.3 428.4,122.7 499.6,66.1C445.202,23.353 377.985,0.102 308.8,0.102C139.397,0.102 -0,139.499 -0,308.902C-0,308.935 -0,308.967 0,309C-0,309.033 -0,309.065 -0,309.098C-0,478.501 139.397,617.898 308.8,617.898C377.985,617.898 445.202,594.647 499.6,551.9C425.226,493.332 381.814,403.666 382,309Z"
        style="fill:rgb(235,0,27);fill-rule:nonzero;" />
    <path
        d="M999.2,309C999.2,309.033 999.2,309.065 999.2,309.098C999.2,478.501 859.803,617.898 690.4,617.898C621.215,617.898 553.998,594.647 499.6,551.9C573.74,493.158 617.048,403.591 617.048,309C617.048,214.409 573.74,124.842 499.6,66.1C553.828,23.241 620.98,-0.059 690.1,0C859.567,0.164 998.981,139.533 999.2,309Z"
        style="fill:rgb(247,158,27);fill-rule:nonzero;" />
</svg>