<svg xmlns="http://www.w3.org/2000/svg" xml:space="preserve" viewBox="0 0 369 365.2"><path fill="#459adb" d="M252.3 293.8c-1.6 10.3-9.4 10.3-17 10.3h-4.4l3-19.3c.2-1.1 1.3-2 2.4-2h2c5.2 0 10 0 12.6 3 1.5 1.7 2 4.4 1.4 8zm-3.3-26.9h-28.7a4 4 0 0 0-4 3.4l-11.6 73.6c-.2 1.4 1 2.7 2.4 2.7h14.7c1.4 0 2.6-1 2.8-2.3l3.3-20.9a4 4 0 0 1 4-3.4h9c19 0 29.8-9.1 32.7-27.2 1.3-8 0-14.2-3.7-18.6-4-4.8-11.3-7.3-21-7.3"/><path fill="#253b7d" d="M47.6 293.8C46 304 38.2 304 30.6 304h-4.4l3-19.3c.2-1.1 1.2-2 2.4-2h2c5.2 0 10 0 12.6 3 1.5 1.7 2 4.4 1.4 8zm-3.3-26.9H15.6a4 4 0 0 0-4 3.4L0 343.9c-.2 1.4 1 2.7 2.4 2.7H16a4 4 0 0 0 4-3.3l3-19.9a4 4 0 0 1 4-3.4h9c19 0 30-9.1 32.8-27.2 1.2-8 0-14.2-3.7-18.6-4-4.8-11.3-7.3-21-7.3M111 320.2a15.3 15.3 0 0 1-15.6 13.1c-4 0-7.2-1.3-9.2-3.7-2-2.4-2.8-5.8-2.2-9.6a15.4 15.4 0 0 1 15.4-13.3c4 0 7 1.3 9.2 3.8 2 2.4 3 5.9 2.3 9.7zm19-26.8h-13.7c-1.2 0-2.2 1-2.3 2l-.6 4-1-1.5c-3-4.3-9.6-5.7-16.2-5.7a31.6 31.6 0 0 0-30.7 27.6 26 26 0 0 0 5.1 21.1c4.2 5 10.2 7 17.3 7 12.2 0 19-7.9 19-7.9l-.6 3.9c-.2 1.4 1 2.7 2.4 2.7H121a4 4 0 0 0 3.9-3.3l7.4-47c.3-1.5-.9-2.9-2.3-2.9"/><path fill="#459adb" d="M315.6 320.2a15.3 15.3 0 0 1-15.5 13.1c-4 0-7.2-1.3-9.2-3.7-2-2.4-2.8-5.8-2.2-9.6a15.4 15.4 0 0 1 15.4-13.3c4 0 7.1 1.3 9.2 3.8 2.1 2.4 3 5.9 2.3 9.7zm19.2-26.8H321c-1.1 0-2.1 1-2.3 2l-.6 4-1-1.5c-3-4.3-9.6-5.7-16.2-5.7a31.6 31.6 0 0 0-30.7 27.6 26 26 0 0 0 5.1 21.1c4.2 5 10.2 7 17.3 7 12.3 0 19-7.9 19-7.9l-.6 3.9c-.2 1.4 1 2.7 2.4 2.7h12.4a4 4 0 0 0 4-3.3l7.3-47c.3-1.5-.8-2.9-2.3-2.9"/><path fill="#253b7d" d="M203.3 293.4h-13.8a4 4 0 0 0-3.3 1.8l-19.1 28-8-27a4 4 0 0 0-3.9-2.8h-13.6a2.4 2.4 0 0 0-2.2 3.2l15.2 44.7-14.3 20.2a2.4 2.4 0 0 0 2 3.7H156a4 4 0 0 0 3.3-1.7l46-66.3c1-1.6-.1-3.8-2-3.8"/><path fill="#459adb" d="m351 269-11.8 74.9c-.2 1.4.9 2.7 2.4 2.7h11.8a4 4 0 0 0 4-3.3l11.6-73.6c.2-1.5-1-2.8-2.4-2.8h-13.3c-1.1 0-2.1.9-2.3 2M274 60.5c2.9-18.5 0-31.1-10-42.6-11-12.5-31-18-56.5-18h-74c-5.2 0-9.7 3.9-10.5 9L92.2 204.4a6.4 6.4 0 0 0 6.3 7.3h45.7l-3.2 20c-.5 3.4 2 6.4 5.5 6.4H185c4.6 0 8.5-3.3 9.2-7.8l.3-2 7.3-46 .5-2.5a9.3 9.3 0 0 1 9.1-7.8h5.8c37.3 0 66.5-15.2 75-59 3.6-18.3 1.8-33.6-7.7-44.4-2.8-3.2-6.4-6-10.5-8.1"/><path fill="#232d62" d="M274 60.5c2.9-18.5 0-31.1-10-42.6-11-12.5-31-18-56.5-18h-74c-5.2 0-9.7 3.9-10.5 9L92.2 204.4a6.4 6.4 0 0 0 6.3 7.3h45.7l11.4-72.8-.3 2.3c.8-5.1 5.2-9 10.4-9h21.7c42.7 0 76-17.3 85.8-67.4l.8-4.3"/><path fill="#253b7d" d="M168 60.7A9.3 9.3 0 0 1 177 53h58a121 121 0 0 1 24 2.3 71.9 71.9 0 0 1 14.9 5.3c2.9-18.5 0-31.1-10-42.6-11-12.5-31-18-56.5-18h-74c-5.2 0-9.7 3.9-10.5 9L92.2 204.4a6.4 6.4 0 0 0 6.3 7.3h45.7l11.4-72.8L168 60.7"/></svg>