<svg xmlns="http://www.w3.org/2000/svg" fill="none" viewBox="0 0 20 24"><path fill="#000" d="M18.97 18.42c-.35.8-.76 1.55-1.24 2.23a11.3 11.3 0 0 1-1.6 1.92c-.63.59-1.31.89-2.04.9-.52 0-1.15-.15-1.89-.45a5.43 5.43 0 0 0-2.04-.45c-.65 0-1.34.15-2.09.45-.75.3-1.35.46-1.8.48-.7.03-1.4-.28-2.1-.93-.45-.39-1-1.05-1.67-2-.71-1-1.3-2.16-1.76-3.5-.5-1.43-.74-2.82-.74-4.16 0-1.54.33-2.87 1-3.99a5.87 5.87 0 0 1 4.93-2.91c.55 0 1.28.17 2.19.5.9.34 1.48.52 1.73.52.2 0 .84-.2 1.93-.6a6.37 6.37 0 0 1 2.62-.47c1.94.16 3.39.92 4.36 2.3a4.85 4.85 0 0 0-2.57 4.4 5.24 5.24 0 0 0 3.19 4.7c-.13.37-.27.72-.41 1.06ZM14.53.96a4.9 4.9 0 0 1-1.26 3.22c-1 1.18-2.23 1.86-3.56 1.76a5.04 5.04 0 0 1 1.3-3.69c.44-.5.98-.9 1.64-1.22C13.3.7 13.92.53 14.5.5l.02.46Z"/></svg>