<svg xmlns="http://www.w3.org/2000/svg" fill="none" viewBox="0 0 24 24"><path fill="#4285F4" fill-rule="evenodd" d="M23.04 12.26c0-.81-.07-1.6-.2-2.35H12v4.45h6.19a5.29 5.29 0 0 1-2.3 3.47v2.88h3.72c2.18-2 3.43-4.95 3.43-8.45Z" clip-rule="evenodd"/><path fill="#34A853" fill-rule="evenodd" d="M12 23.5c3.1 0 5.7-1.03 7.61-2.79l-3.72-2.88a6.91 6.91 0 0 1-3.89 1.1c-3 0-5.53-2.03-6.43-4.75H1.72v2.98A11.5 11.5 0 0 0 12 23.5Z" clip-rule="evenodd"/><path fill="#FBBC05" fill-rule="evenodd" d="M5.57 14.19a6.91 6.91 0 0 1 0-4.37V6.84H1.72a11.5 11.5 0 0 0 0 10.32l3.85-2.97Z" clip-rule="evenodd"/><path fill="#EA4335" fill-rule="evenodd" d="M12 5.07c1.69 0 3.2.58 4.4 1.72l3.3-3.3A11.5 11.5 0 0 0 1.72 6.84l3.84 2.98A6.85 6.85 0 0 1 12 5.07Z" clip-rule="evenodd"/></svg>