<svg width="204" height="184" viewBox="0 0 204 184" fill="none" xmlns="http://www.w3.org/2000/svg">
<g clip-path="url(#clip0_6153_27648)">
<path d="M201.83 70.3385C201.757 70.3386 201.686 70.3162 201.626 70.2745L102.949 1.50513C102.649 1.29683 102.292 1.18551 101.927 1.18613C101.562 1.18676 101.205 1.29929 100.905 1.50862L2.93973 70.2738C2.86224 70.3282 2.76634 70.3496 2.67312 70.3332C2.5799 70.3168 2.49699 70.2641 2.44264 70.1865C2.38829 70.109 2.36695 70.013 2.38331 69.9197C2.39967 69.8264 2.45239 69.7435 2.52988 69.6891L100.496 0.923879C100.915 0.630864 101.414 0.473355 101.926 0.472514C102.437 0.471673 102.937 0.627538 103.357 0.919172L202.034 69.6884C202.096 69.7318 202.143 69.7941 202.167 69.8661C202.192 69.938 202.193 70.0159 202.17 70.0885C202.147 70.161 202.102 70.2244 202.041 70.2693C201.98 70.3143 201.906 70.3385 201.83 70.3385L201.83 70.3385Z" fill="#3F3D56"/>
<path d="M8.53785 72.7762L102.024 3.44285L196.22 77.7096L106.841 130.732L58.3159 119.663L8.53785 72.7762Z" fill="#E6E6E6"/>
<path d="M62.4118 163.481L16.2274 163.481C15.9438 163.482 15.6629 163.426 15.4008 163.318C15.1387 163.209 14.9005 163.05 14.6999 162.85C14.4992 162.649 14.34 162.411 14.2314 162.149C14.1228 161.887 14.0669 161.606 14.0669 161.322C14.0669 161.038 14.1228 160.757 14.2314 160.495C14.34 160.233 14.4992 159.995 14.6999 159.794C14.9005 159.594 15.1387 159.435 15.4008 159.326C15.6629 159.218 15.9438 159.162 16.2274 159.163L62.4118 159.163C62.6954 159.162 62.9763 159.218 63.2384 159.326C63.5005 159.435 63.7387 159.594 63.9393 159.794C64.14 159.995 64.2992 160.233 64.4078 160.495C64.5164 160.757 64.5723 161.038 64.5723 161.322C64.5723 161.606 64.5164 161.887 64.4078 162.149C64.2992 162.411 64.14 162.649 63.9393 162.85C63.7387 163.05 63.5005 163.209 63.2384 163.318C62.9763 163.426 62.6954 163.482 62.4118 163.481V163.481Z" fill="#8CB900"/>
<path d="M32.7973 154.198L16.2274 154.198C15.9438 154.198 15.6629 154.143 15.4008 154.034C15.1387 153.926 14.9005 153.767 14.6999 153.566C14.4992 153.366 14.34 153.128 14.2314 152.866C14.1228 152.603 14.0669 152.322 14.0669 152.039C14.0669 151.755 14.1228 151.474 14.2314 151.212C14.34 150.95 14.4992 150.711 14.6999 150.511C14.9005 150.31 15.1387 150.151 15.4008 150.043C15.6629 149.935 15.9438 149.879 16.2274 149.879L32.7973 149.879C33.0809 149.879 33.3618 149.935 33.6239 150.043C33.886 150.151 34.1242 150.31 34.3249 150.511C34.5255 150.711 34.6847 150.95 34.7933 151.212C34.9019 151.474 34.9578 151.755 34.9578 152.039C34.9578 152.322 34.9019 152.603 34.7933 152.866C34.6847 153.128 34.5255 153.366 34.3249 153.566C34.1242 153.767 33.886 153.926 33.6239 154.034C33.3618 154.143 33.0809 154.198 32.7973 154.198Z" fill="#8CB900"/>
<path d="M103.339 111.394C102.988 111.394 102.64 111.326 102.315 111.193L44.6591 87.2534L44.6591 12.3176C44.6598 11.6549 44.9232 11.0197 45.3914 10.5511C45.8597 10.0826 46.4945 9.81898 47.1567 9.81821L157.765 9.81821C158.427 9.81899 159.062 10.0826 159.53 10.5511C159.998 11.0197 160.262 11.6549 160.263 12.3176L160.263 87.3057L160.154 87.3521L104.393 111.182C104.059 111.322 103.701 111.394 103.339 111.394Z" fill="white"/>
<path d="M103.338 111.572C102.964 111.573 102.593 111.5 102.247 111.359L44.4806 87.3726L44.4806 12.3175C44.4814 11.6076 44.7636 10.9269 45.2653 10.4249C45.7669 9.92285 46.4471 9.64045 47.1566 9.63965L157.765 9.63966C158.474 9.64046 159.155 9.92285 159.656 10.4249C160.158 10.9269 160.44 11.6076 160.441 12.3175L160.441 87.4236L104.463 111.346C104.107 111.496 103.725 111.573 103.338 111.572V111.572ZM45.1942 86.8956L102.519 110.698C103.054 110.915 103.652 110.912 104.184 110.688L159.727 86.9521L159.727 12.3175C159.727 11.7969 159.52 11.2978 159.152 10.9296C158.784 10.5615 158.285 10.3544 157.765 10.3538L47.1566 10.3538C46.6363 10.3544 46.1376 10.5615 45.7697 10.9296C45.4018 11.2978 45.1948 11.7969 45.1942 12.3175L45.1942 86.8956Z" fill="#3F3D56"/>
<path d="M201.116 69.6244L201.045 69.6244L160.084 87.1271L104.041 111.075C103.822 111.167 103.587 111.215 103.35 111.216C103.112 111.217 102.877 111.172 102.657 111.082L44.8373 87.0771L2.87033 69.653L2.80622 69.6244L2.73479 69.6244C2.07261 69.6251 1.43776 69.8887 0.969524 70.3572C0.501291 70.8258 0.237917 71.4611 0.237183 72.1238L0.23719 180.667C0.237926 181.33 0.501299 181.965 0.969532 182.434C1.43777 182.902 2.07262 183.166 2.7348 183.167L201.116 183.167C201.778 183.166 202.413 182.902 202.882 182.434C203.35 181.965 203.613 181.33 203.614 180.667L203.614 72.1238C203.613 71.4611 203.35 70.8258 202.882 70.3573C202.413 69.8887 201.778 69.6251 201.116 69.6244V69.6244ZM202.9 180.667C202.9 181.141 202.712 181.595 202.378 181.93C202.043 182.264 201.589 182.452 201.116 182.453L2.7348 182.453C2.26171 182.452 1.80805 182.264 1.47353 181.93C1.139 181.595 0.950982 181.141 0.950793 180.667L0.950785 72.1238C0.951432 71.6621 1.13038 71.2185 1.45023 70.8858C1.77007 70.5531 2.20605 70.357 2.66702 70.3385L44.8373 87.8483L102.382 111.742C103.005 111.996 103.703 111.992 104.323 111.731L160.084 87.9019L201.188 70.3385C201.648 70.3584 202.083 70.555 202.402 70.8876C202.721 71.2201 202.899 71.6628 202.9 72.1238L202.9 180.667Z" fill="#3F3D56"/>
<path d="M102.762 90.145C100.634 90.1489 98.5616 89.4602 96.8586 88.1826L96.753 88.1032L74.5204 71.0692C73.4907 70.2797 72.6266 69.295 71.9772 68.1714C71.3279 67.0477 70.906 65.807 70.7358 64.5202C70.5656 63.2334 70.6503 61.9257 70.9852 60.6716C71.32 59.4176 71.8984 58.2418 72.6873 57.2114C73.4762 56.1811 74.4602 55.3163 75.5831 54.6665C76.706 54.0167 77.9457 53.5945 79.2317 53.4242C80.5176 53.2539 81.8244 53.3387 83.0776 53.6737C84.3307 54.0088 85.5057 54.5876 86.5353 55.3771L100.936 66.427L134.967 22.0145C135.756 20.9844 136.74 20.12 137.864 19.4706C138.987 18.8211 140.227 18.3994 141.513 18.2296C142.799 18.0597 144.105 18.145 145.358 18.4805C146.611 18.8161 147.786 19.3953 148.815 20.1852L148.604 20.4727L148.821 20.1893C150.897 21.7863 152.256 24.1422 152.599 26.7403C152.941 29.3384 152.24 31.9664 150.649 34.0478L110.621 86.2875C109.695 87.4913 108.504 88.4654 107.141 89.1344C105.779 89.8034 104.28 90.1492 102.762 90.145V90.145Z" fill="#8CB900"/>
</g>
<defs>
<clipPath id="clip0_6153_27648">
<rect width="165.502" height="148.672" fill="white" transform="translate(0.237183 0.472504) scale(1.22884)"/>
</clipPath>
</defs>
</svg>
