<svg width="193" height="175" viewBox="0 0 193 175" fill="none" xmlns="http://www.w3.org/2000/svg">
<path fill-rule="evenodd" clip-rule="evenodd" d="M13.4351 133.872C52.6075 190.997 118.764 179.471 150.082 149.559C150.082 149.559 184.646 114.93 156.503 82.5447C144.606 68.858 142.584 54.419 139.426 41.5723C135.12 24.0294 128.715 9.44754 92.2084 3.76278C67.6513 -0.061981 44.3818 10.0885 27.3961 27.2866C0.637968 54.3656 -10.5258 98.9304 13.4351 133.872Z" fill="#E6EEE5"/>
<path fill-rule="evenodd" clip-rule="evenodd" d="M13.4361 133.871C52.6085 190.996 118.765 179.47 150.083 149.557C150.083 149.557 178.261 121.328 163.017 92.0079C161.379 88.8537 159.237 85.6879 156.504 82.5432C144.607 68.8565 142.585 54.4203 139.427 41.5746C139.418 41.9137 138.459 72.3479 105.074 63.2832C79.1313 56.2356 57.6513 30.3175 27.398 27.2832C12.337 42.5213 2.21609 63.3089 0.51895 84.7956C-0.800097 101.481 2.96562 118.596 13.4361 133.871Z" fill="#578F53"/>
<path fill-rule="evenodd" clip-rule="evenodd" d="M13.4361 133.871C52.6085 190.996 118.765 179.47 150.083 149.557C150.083 149.557 178.261 121.328 163.017 92.0079C161.379 88.8537 159.237 85.6879 156.504 82.5432C144.607 68.8565 142.585 54.4203 139.427 41.5746C139.418 41.9137 138.459 72.3479 105.074 63.2832C79.1313 56.2356 57.6513 30.3175 27.398 27.2832C12.337 42.5213 2.21609 63.3089 0.51895 84.7956C-0.800097 101.481 2.96562 118.596 13.4361 133.871Z" fill="white" fill-opacity="0.4"/>
<path fill-rule="evenodd" clip-rule="evenodd" d="M13.4351 133.871C52.6074 190.996 118.764 179.47 150.082 149.558C150.082 149.558 163.217 136.398 166.7 118.718C168.319 110.502 167.852 101.31 163.016 92.0086C149.293 100.33 118.472 115.411 95.2941 100.033C69.4846 82.9067 28.7122 57.1048 0.517941 84.7952C0.293197 87.6353 0.219759 90.4854 0.297941 93.3333C0.672227 107.249 4.74175 121.193 13.4351 133.871Z" fill="#578F53"/>
<path fill-rule="evenodd" clip-rule="evenodd" d="M13.4361 133.872C52.6085 190.997 118.765 179.471 150.083 149.559C150.083 149.559 163.218 136.399 166.701 118.719C166.701 118.719 153.558 138.814 116.632 144.357C76.2351 150.426 38.6913 99.2873 0.29895 93.334C0.673236 107.249 4.74276 121.194 13.4361 133.872Z" fill="#578F53"/>
<path fill-rule="evenodd" clip-rule="evenodd" d="M13.4361 133.872C52.6085 190.997 118.765 179.471 150.083 149.559C150.083 149.559 163.218 136.399 166.701 118.719C166.701 118.719 153.558 138.814 116.632 144.357C76.2351 150.426 38.6913 99.2873 0.29895 93.334C0.673236 107.249 4.74276 121.194 13.4361 133.872Z" fill="black" fill-opacity="0.4"/>
<path d="M109.215 3.00195C135.246 8.51052 139.93 33.9819 139.93 33.9819" stroke="#E4DBFA" stroke-linecap="round"/>
<path d="M104.952 2.6127C104.952 2.6127 95.8662 0.830793 92.2853 0.851746" stroke="#E4DBFA" stroke-linecap="round"/>
<path d="M158.76 144.292C158.76 144.292 175.685 133.93 170.899 96.7246" stroke="#E4DBFA" stroke-linecap="round"/>
<path fill-rule="evenodd" clip-rule="evenodd" d="M192.339 65.0473C189.745 81.1102 169.264 86.3588 159.27 73.5235C151.847 63.9893 145.235 50.0388 151.629 34.4921C163.454 5.74166 196.112 39.554 192.452 64.3159C192.416 64.5616 192.378 64.8054 192.339 65.0473Z" fill="#E6EEE5"/>
<path fill-rule="evenodd" clip-rule="evenodd" d="M76.2027 154.218C72.3655 154.01 68.3493 153.402 64.5436 153.491C61.9093 153.556 60.3055 152.303 60.3055 152.303L58.1293 150.165C57.6941 149.233 57.7046 148.356 58.2912 147.558L63.3912 147.26L68.675 146.511C68.9744 146.321 69.2451 146.089 69.4789 145.822C70.4465 144.722 70.7627 143.051 70.5627 140.93C70.3722 140.052 70.1909 139.165 70.0189 138.27C69.7008 136.634 69.4065 134.97 69.1284 133.289C71.9189 134.781 74.9636 134.563 78.176 133.279C78.377 133.2 78.5855 133.114 78.7893 133.021C78.6389 134.152 78.4808 135.295 78.3408 136.456C78.2912 136.881 78.2455 137.307 78.197 137.736C78.0912 138.739 78.0008 139.751 77.937 140.774C77.8151 142.568 77.8151 144.369 77.937 146.163C79.4141 149.982 80.2979 154.095 76.2027 154.218Z" fill="#FED194"/>
<path fill-rule="evenodd" clip-rule="evenodd" d="M78.7891 133.021C78.6386 134.152 78.4805 135.295 78.3405 136.456C78.291 136.881 78.2453 137.307 78.1967 137.736C72.9072 140.473 70.0215 138.27 70.0215 138.27C69.7034 136.634 69.4091 134.97 69.131 133.289C71.9215 134.781 74.9662 134.563 78.1786 133.279C78.3767 133.2 78.5834 133.114 78.7891 133.021Z" fill="#F59D4E"/>
<path fill-rule="evenodd" clip-rule="evenodd" d="M58.2972 147.559C58.2972 147.559 55.2267 150.797 60.4372 153.844C60.4372 153.844 61.761 154.944 67.3267 155.082C72.8924 155.22 76.9896 155.312 78.0886 154.724C79.1876 154.137 79.1219 151.972 79.1219 151.972L58.2972 147.559Z" fill="#FFB113"/>
<path fill-rule="evenodd" clip-rule="evenodd" d="M76.2027 154.218C72.3655 154.011 68.3493 153.403 64.5436 153.492H64.3484C62.507 153.48 60.7437 152.746 59.437 151.449L58.1293 150.163C57.6941 149.231 57.7046 148.354 58.2912 147.556L63.3912 147.257C65.4895 147.143 67.5508 146.656 69.4789 145.82C69.4789 145.82 73.955 149.582 77.937 146.161C79.4141 149.983 80.2979 154.096 76.2027 154.218Z" fill="#070208"/>
<path fill-rule="evenodd" clip-rule="evenodd" d="M67.9796 146.295C68.0666 146.272 68.1567 146.32 68.1853 146.405C68.5291 147.443 69.0596 147.779 69.0653 147.782C69.1172 147.813 69.1484 147.869 69.1473 147.93C69.1461 147.991 69.1127 148.046 69.0597 148.075C69.0066 148.105 68.9419 148.103 68.8901 148.072C68.8643 148.057 68.252 147.68 67.8643 146.512C67.8348 146.423 67.8825 146.328 67.971 146.298L67.9796 146.295Z" fill="white"/>
<path fill-rule="evenodd" clip-rule="evenodd" d="M66.1913 146.66C66.278 146.637 66.3675 146.685 66.3961 146.77C66.7409 147.808 67.2704 148.144 67.2761 148.147C67.3556 148.195 67.3807 148.299 67.3323 148.379C67.3095 148.417 67.2724 148.445 67.2291 148.456C67.1859 148.467 67.14 148.46 67.1018 148.437C67.0761 148.421 66.4628 148.045 66.0751 146.877C66.061 146.834 66.0644 146.788 66.0846 146.748C66.1047 146.707 66.1401 146.677 66.1828 146.663L66.1913 146.66Z" fill="white"/>
<path fill-rule="evenodd" clip-rule="evenodd" d="M64.4038 146.953C64.4908 146.93 64.5809 146.978 64.6095 147.064C64.9533 148.101 65.4838 148.437 65.4886 148.44C65.5517 148.494 65.5663 148.586 65.523 148.657C65.4797 148.728 65.3913 148.757 65.3143 148.725C65.2886 148.709 64.6752 148.333 64.2876 147.165C64.2593 147.077 64.3067 146.983 64.3943 146.953H64.4038Z" fill="white"/>
<path fill-rule="evenodd" clip-rule="evenodd" d="M115.155 142.813C111.822 144.729 108.126 146.407 104.982 148.556C102.808 150.044 100.781 149.868 100.781 149.868L97.7912 149.26C96.9179 148.716 96.4512 147.977 96.5065 146.985L100.621 143.957L104.644 140.451C104.791 140.128 104.892 139.786 104.943 139.435C105.155 137.986 104.509 136.412 103.186 134.742C102.552 134.107 101.917 133.463 101.282 132.808C100.124 131.609 98.9703 130.378 97.8217 129.116C100.974 128.847 103.409 127.006 105.401 124.18C105.526 124.004 105.655 123.818 105.775 123.631C106.265 124.66 106.755 125.704 107.27 126.755C107.461 127.136 107.653 127.519 107.847 127.906C108.306 128.803 108.781 129.702 109.285 130.595C110.16 132.166 111.142 133.675 112.223 135.113C115.536 137.513 118.515 140.476 115.155 142.813Z" fill="#FED194"/>
<path fill-rule="evenodd" clip-rule="evenodd" d="M105.773 123.631C106.262 124.66 106.753 125.704 107.268 126.755C107.458 127.136 107.651 127.519 107.845 127.906C102.834 129.938 101.28 132.807 101.28 132.807C100.122 131.608 98.9689 130.378 97.8203 129.115C100.973 128.846 103.408 127.005 105.399 124.179C105.524 124.004 105.653 123.818 105.773 123.631Z" fill="#F59D4E"/>
<path fill-rule="evenodd" clip-rule="evenodd" d="M96.5051 146.986C96.5051 146.986 95.6965 151.378 101.722 151.088C101.722 151.088 103.431 151.289 108.173 148.372C112.915 145.455 116.401 143.3 116.999 142.211C117.597 141.123 116.366 139.34 116.366 139.34L96.5051 146.986Z" fill="#FFB113"/>
<path fill-rule="evenodd" clip-rule="evenodd" d="M115.155 142.812C111.822 144.729 108.126 146.407 104.982 148.555C104.928 148.593 104.873 148.629 104.819 148.664C103.268 149.657 101.391 150.002 99.5884 149.626L97.7912 149.26C96.9179 148.715 96.4512 147.976 96.5065 146.985L100.621 143.956C102.318 142.717 103.782 141.186 104.943 139.434C104.943 139.434 110.743 140.153 112.221 135.113C115.536 137.512 118.515 140.475 115.155 142.812Z" fill="#070208"/>
<path fill-rule="evenodd" clip-rule="evenodd" d="M103.937 140.65C103.997 140.583 104.099 140.575 104.17 140.63C105.027 141.312 105.651 141.306 105.657 141.306C105.746 141.309 105.818 141.38 105.821 141.469C105.824 141.558 105.757 141.635 105.669 141.644C105.638 141.644 104.919 141.663 103.954 140.895C103.881 140.837 103.869 140.73 103.928 140.657L103.937 140.65Z" fill="white"/>
<path fill-rule="evenodd" clip-rule="evenodd" d="M102.638 141.932C102.698 141.865 102.8 141.856 102.871 141.912C103.728 142.594 104.352 142.587 104.358 142.587C104.448 142.59 104.519 142.662 104.522 142.751C104.525 142.84 104.459 142.916 104.37 142.925C104.339 142.925 103.62 142.944 102.656 142.177C102.583 142.118 102.571 142.012 102.629 141.939L102.638 141.932Z" fill="white"/>
<path fill-rule="evenodd" clip-rule="evenodd" d="M101.297 143.15C101.357 143.083 101.458 143.075 101.529 143.13C102.386 143.812 103.01 143.806 103.017 143.806C103.11 143.803 103.187 143.877 103.19 143.969C103.192 144.014 103.176 144.058 103.146 144.091C103.115 144.123 103.073 144.142 103.028 144.144C102.999 144.144 102.279 144.164 101.314 143.395C101.241 143.337 101.229 143.23 101.287 143.157L101.297 143.15Z" fill="white"/>
<path fill-rule="evenodd" clip-rule="evenodd" d="M61.0779 85.4775L38.8513 73.7766L38.7522 64.6061L38.4884 40.209L65.5017 51.3804L64.497 59.1252H64.496L61.0779 85.4775Z" fill="#FF920F"/>
<path fill-rule="evenodd" clip-rule="evenodd" d="M88.203 76.2343L82.664 78.1219L76.7535 80.1371L76.4631 80.2324L61.0802 85.4705L65.4983 51.4152L65.504 51.3733L67.4792 50.8838L78.584 48.1429L79.4107 47.9391L92.2221 44.7695H92.2297L88.203 76.2343Z" fill="#FFAD01"/>
<path fill-rule="evenodd" clip-rule="evenodd" d="M92.2307 44.7676H92.2231C91.9555 44.8628 86.1678 46.9466 79.6364 48.7761C75.6872 49.8732 71.6613 50.6726 67.5926 51.1676C66.6964 51.2742 66.0555 51.3333 65.7345 51.3581L65.504 51.3752L67.4793 50.8857L78.5821 48.1428L79.4078 47.939L92.2307 44.7676Z" fill="black"/>
<path fill-rule="evenodd" clip-rule="evenodd" d="M92.2331 44.7661V44.7671H92.2322L92.2246 44.769L79.4417 47.9509L78.617 48.1566L67.4941 50.9242L65.736 51.3623L65.4951 51.4214L61.5189 49.7709L57.5646 48.129L38.4884 40.209L51.177 36.9271L65.4036 33.248L92.2331 44.7661Z" fill="#FAD6AB"/>
<path fill-rule="evenodd" clip-rule="evenodd" d="M92.2331 44.7661V44.7671H92.2322L92.2246 44.769L79.4417 47.9509L78.617 48.1566L67.4941 50.9242L65.736 51.3623L65.4951 51.4214L61.5189 49.7709L57.5646 48.129L38.4884 40.209L51.177 36.9271L65.4036 33.248L92.2331 44.7661Z" fill="#FFCF58"/>
<path fill-rule="evenodd" clip-rule="evenodd" d="M61.078 85.4774L38.8513 73.7764L38.7561 64.6059C38.7561 64.6059 52.1637 78.2564 64.4999 59.125L61.078 85.4774Z" fill="#F27204"/>
<path fill-rule="evenodd" clip-rule="evenodd" d="M52.3127 36.6362L78.6175 48.1562L79.4423 47.9514L53.1337 36.4238L52.3127 36.6362Z" fill="black"/>
<path fill-rule="evenodd" clip-rule="evenodd" d="M59.1048 75.5156L45.9191 69.6699L45.4591 74.0975L58.5315 81.0318L59.1048 75.5156Z" fill="#EDE2DB"/>
<path fill-rule="evenodd" clip-rule="evenodd" d="M55.5324 76.1895L55.3419 78.0218L57.4533 79.0666L57.64 77.2704L55.5324 76.1895Z" fill="#90898B"/>
<path fill-rule="evenodd" clip-rule="evenodd" d="M46.9286 71.0762L46.879 71.5486L51.9305 74.1276L51.9762 73.6924L46.9286 71.0762Z" fill="#90898B"/>
<path fill-rule="evenodd" clip-rule="evenodd" d="M46.7975 72.3281L46.7423 72.8567L52.3499 75.7386L52.4004 75.251L46.7975 72.3281Z" fill="#90898B"/>
<path fill-rule="evenodd" clip-rule="evenodd" d="M46.6677 73.5801L46.6134 74.1077L52.2201 76.9906L52.2705 76.5029L46.6677 73.5801Z" fill="#90898B"/>
<path fill-rule="evenodd" clip-rule="evenodd" d="M51.0085 55.9733L41.1857 51.281L41.3971 45.8848L51.4523 50.9676L51.0085 55.9733Z" fill="#EAECED"/>
<path fill-rule="evenodd" clip-rule="evenodd" d="M42.3055 51.2123L41.795 50.9676L41.9617 46.998L42.4817 47.258L42.3055 51.2123Z" fill="#515151"/>
<path fill-rule="evenodd" clip-rule="evenodd" d="M42.4071 51.2613L42.2052 51.1642L42.3795 47.207L42.5852 47.3099L42.4071 51.2613Z" fill="#515151"/>
<path fill-rule="evenodd" clip-rule="evenodd" d="M42.831 51.4648L42.631 51.3686L42.8129 47.4238L43.0176 47.5257L42.831 51.4648Z" fill="#515151"/>
<path fill-rule="evenodd" clip-rule="evenodd" d="M43.2529 51.6692L43.0529 51.573L43.2424 47.6406L43.4462 47.7425L43.2529 51.6692Z" fill="#515151"/>
<path fill-rule="evenodd" clip-rule="evenodd" d="M43.7625 51.9127L43.4825 51.7784L43.6797 47.8594L43.9644 48.0022L43.7625 51.9127Z" fill="#515151"/>
<path fill-rule="evenodd" clip-rule="evenodd" d="M44.0927 52.0722L43.8947 51.977L44.0994 48.0703L44.3013 48.1713L44.0927 52.0722Z" fill="#515151"/>
<path fill-rule="evenodd" clip-rule="evenodd" d="M44.5107 52.2727L44.3126 52.1775L44.525 48.2832L44.726 48.3832L44.5107 52.2727Z" fill="#515151"/>
<path fill-rule="evenodd" clip-rule="evenodd" d="M44.9982 52.5095L44.6544 52.3437L44.8725 48.459L45.223 48.6342L44.9982 52.5095Z" fill="#515151"/>
<path fill-rule="evenodd" clip-rule="evenodd" d="M45.3389 52.6718L45.1427 52.5775L45.3703 48.707L45.5694 48.807L45.3389 52.6718Z" fill="#515151"/>
<path fill-rule="evenodd" clip-rule="evenodd" d="M45.751 52.8703L45.5568 52.777L45.791 48.918L45.9891 49.018L45.751 52.8703Z" fill="#515151"/>
<path fill-rule="evenodd" clip-rule="evenodd" d="M46.1612 53.067L45.9669 52.9736L46.2088 49.127L46.406 49.226L46.1612 53.067Z" fill="#515151"/>
<path fill-rule="evenodd" clip-rule="evenodd" d="M46.6429 53.2988L46.3048 53.136L46.5515 49.2988L46.8953 49.4722L46.6429 53.2988Z" fill="#515151"/>
<path fill-rule="evenodd" clip-rule="evenodd" d="M46.9757 53.4582L46.7833 53.3658L47.0395 49.543L47.2348 49.6411L46.9757 53.4582Z" fill="#515151"/>
<path fill-rule="evenodd" clip-rule="evenodd" d="M47.38 53.6529L47.1876 53.5605L47.4505 49.75L47.6457 49.8471L47.38 53.6529Z" fill="#515151"/>
<path fill-rule="evenodd" clip-rule="evenodd" d="M47.7843 53.8475L47.5939 53.7561L47.8624 49.957L48.0567 50.0542L47.7843 53.8475Z" fill="#515151"/>
<path fill-rule="evenodd" clip-rule="evenodd" d="M48.1658 54.0307L47.7697 53.8412L48.043 50.0469L48.4449 50.2488L48.1658 54.0307Z" fill="#515151"/>
<path fill-rule="evenodd" clip-rule="evenodd" d="M48.5832 54.2309L48.3947 54.1405L48.6775 50.3652L48.8699 50.4614L48.5832 54.2309Z" fill="#515151"/>
<path fill-rule="evenodd" clip-rule="evenodd" d="M48.9836 54.4226L48.795 54.3322L49.0855 50.5684L49.2769 50.6645L48.9836 54.4226Z" fill="#515151"/>
<path fill-rule="evenodd" clip-rule="evenodd" d="M49.3791 54.6134L49.1915 54.5239L49.4887 50.7715L49.6791 50.8667L49.3791 54.6134Z" fill="#515151"/>
<path fill-rule="evenodd" clip-rule="evenodd" d="M49.7747 54.8041L49.588 54.7136L49.8909 50.9727L50.0804 51.0679L49.7747 54.8041Z" fill="#515151"/>
<path fill-rule="evenodd" clip-rule="evenodd" d="M50.1503 54.9843L49.6798 54.7586L49.9846 51.0195L50.4627 51.2595L50.1503 54.9843Z" fill="#515151"/>
<path fill-rule="evenodd" clip-rule="evenodd" d="M50.5589 55.1807L50.3732 55.0911L50.6894 51.373L50.8779 51.4673L50.5589 55.1807Z" fill="#515151"/>
<path fill-rule="evenodd" clip-rule="evenodd" d="M61.7251 46.5859L57.1651 48.2764L56.7013 52.7478L60.4184 54.3936L60.9861 49.9945L65.5118 48.0983L61.7251 46.5859Z" fill="black"/>
<g style="mix-blend-mode:multiply" opacity="0.32">
<path fill-rule="evenodd" clip-rule="evenodd" d="M57.6205 48.1543L57.131 48.6114C57.131 48.6114 59.6186 49.5086 61.03 49.9952C61.1766 49.9052 61.3298 49.8263 61.4881 49.7591L57.6205 48.1543Z" fill="#B28567"/>
</g>
<path fill-rule="evenodd" clip-rule="evenodd" d="M66.5643 61.8095L66.7919 61.7705L67.0662 61.6752C67.1188 61.6731 67.1709 61.6644 67.2214 61.6495L67.2748 61.62L67.35 61.6067H67.3567L67.3786 61.6009V61.5962L67.4214 61.5876L67.5452 61.5419L67.6919 61.5133L67.7262 61.5H67.7367L67.9167 61.4314L68.0519 61.4171L68.209 61.3505L68.4348 61.3105L68.8157 61.1819L69.0643 61.1362L69.309 61.0409H69.3767V61.0181C69.4521 60.9975 69.523 60.9626 69.5852 60.9152L69.609 60.9086L69.6309 60.9257L69.7195 60.8305C69.7195 60.9105 69.7871 60.94 69.9224 60.919L70.01 60.799L70.1443 60.8105L70.3881 60.7152L70.7005 60.6286L70.9214 60.5447C70.9214 60.5762 71.0109 60.5762 71.1881 60.5447L71.3424 60.4295L71.5424 60.3971C71.5952 60.3812 71.6458 60.3585 71.6928 60.3295C71.7128 60.3733 71.7881 60.3771 71.93 60.3381L72.0167 60.2914L72.0405 60.2847L72.0624 60.3019L72.0833 60.2962L72.1062 60.2667L72.3919 60.2105L72.6119 60.1257L72.7424 60.1124L72.8967 60.0467L73.1167 60.0095L73.4871 59.8828L73.729 59.839L73.969 59.7495H74.0338V59.7286L74.1224 59.7047L74.3195 59.6724L74.4509 59.5886L74.5176 59.5943L74.6938 59.5209L74.9128 59.4847L75.0005 59.4362L75.2195 59.4L75.4157 59.3209L76.0928 59.1809L76.2443 59.1162L76.2671 59.1095L76.3976 59.0962L76.6157 58.9886L76.789 58.9647L76.81 58.959V58.9524L76.87 58.9419L76.9348 58.899H77.0214L77.0414 58.8933L77.1928 58.8267L77.2586 58.8562L77.6462 58.7009L77.8367 58.6952L77.9662 58.6114L78.1367 58.5638L78.3947 58.5171C78.3947 58.4705 78.4738 58.4219 78.6309 58.3809C78.6309 58.3809 78.8671 58.3228 78.8662 58.3619V58.3867C78.9025 58.3715 78.9378 58.354 78.9719 58.3343C79.0236 58.3332 79.075 58.3265 79.1252 58.3143L79.189 58.2724H79.2747L79.2948 58.2667L79.4443 58.2009L79.509 58.2305L79.89 58.0762L80.0805 58.0705L80.209 57.9876L80.3776 57.9409L80.6328 57.8952C80.6328 57.8486 80.7109 57.8 80.8662 57.76L81.1843 57.6476C81.1271 57.6714 81.0986 57.7028 81.0986 57.7428V57.7676C81.149 57.7467 81.2157 57.719 81.2757 57.6924C81.3033 57.7219 81.3757 57.72 81.4928 57.6924L81.5767 57.6467L81.5986 57.64L81.6186 57.6571L81.6386 57.6514L81.6605 57.6228L81.9328 57.5705L82.1424 57.4895L82.2662 57.4771L82.4138 57.4143L82.6214 57.379L82.9747 57.259L83.2043 57.2171L83.4328 57.1314L83.4938 57.1371V57.1143C83.5645 57.0956 83.6308 57.0632 83.689 57.019L83.7109 57.0133L83.73 57.0305L83.8157 56.9352C83.8157 57.0133 83.8747 57.0428 83.9976 57.0238L84.0833 56.9076L84.2062 56.9209L84.4328 56.8333L84.7186 56.7533L84.9252 56.6733C84.9252 56.6828 84.9338 56.6886 84.9471 56.6924L84.9643 56.7095C84.9776 56.7095 84.9871 56.7009 85.0005 56.6962C85.0571 56.6933 85.1134 56.6863 85.169 56.6752L85.3157 56.5657H85.3262C85.3471 56.6086 85.4033 56.6228 85.4976 56.6086L85.569 56.5133L85.6033 56.4962L85.7033 56.5076L85.929 56.4209L86.2147 56.3409L86.4205 56.2619C86.4205 56.2933 86.4995 56.2933 86.6614 56.2619L86.8071 56.1524L86.99 56.1238C87.1119 56.0819 87.1738 56.0419 87.1747 56.0038L87.1795 55.8648L87.1614 55.8457L87.0586 55.899L86.7309 55.9943L86.3862 56.0428C86.3862 56.0705 86.3509 56.0952 86.2824 56.1181L86.0167 56.1914H85.9147L85.8947 56.2219H85.7928L85.6852 56.2714L85.67 56.2562L85.5662 56.3086L85.3481 56.3686L85.1347 56.4038L85.0967 56.42L84.889 56.4495C84.889 56.4771 84.8528 56.5019 84.7843 56.5248L84.5167 56.599H84.4138L84.3928 56.6295H84.29L84.0405 56.7457L83.6262 56.8133L83.4852 56.8733C83.3887 56.869 83.2921 56.8809 83.1995 56.9086V56.9305L83.1767 56.9619V56.9848L83.2386 56.9667V56.9914L83.1347 57.0209H82.97L82.8871 57.0667L82.7833 57.0724L82.6567 57.1305L82.49 57.1762L82.0928 57.3105L81.969 57.2981L81.9471 57.3038L81.9262 57.3324L81.7795 57.3505L81.5271 57.4457H81.2776L81.2614 57.4676L81.2186 57.4543L81.1557 57.4714L80.9652 57.5009L80.4128 57.7238L80.2224 57.7543L79.9252 57.8838L79.4338 58.02L79.2214 58.0533V58.0781C79.1456 58.0973 79.0773 58.1388 79.0252 58.1971V58.1076L78.9824 58.0724L78.9186 58.0895L78.7281 58.12L78.17 58.3447L77.9795 58.3752L77.6786 58.5067L77.1814 58.6438L76.9671 58.6781V58.7038C76.9052 58.7197 76.8475 58.7493 76.7986 58.7905V58.7562C76.7986 58.7247 76.7195 58.7228 76.5605 58.7514L76.4738 58.8467C76.4509 58.8219 76.349 58.8257 76.169 58.8609L76.0376 58.9447L75.689 59.04L75.5348 59.1057V59.0828L75.4909 59.0952L75.2948 59.1724L75.2071 59.1257L75.0319 59.2209L74.9214 59.2514L74.8128 59.2571L74.7462 59.3L74.6805 59.3181L74.6367 59.2828L74.4824 59.3781H74.3728C74.2592 59.4169 74.1487 59.4643 74.0424 59.52C74.0424 59.4838 73.9328 59.4905 73.7157 59.539V59.5619L73.6928 59.5933V59.6162L73.7586 59.599V59.6238L73.649 59.6543H73.4738L73.3871 59.7009L73.2776 59.7086L73.1452 59.7686L72.97 59.8171L72.5528 59.9571L72.4214 59.9457L72.3976 59.9514L72.3767 59.9809L72.2224 60.0009L71.9567 60.0962H71.6919L71.6633 60.1371L71.5928 60.1724L71.2367 60.2676L70.8557 60.3228C70.8557 60.3514 70.8195 60.3771 70.7452 60.4019L70.4595 60.4819L70.3471 60.4876L70.3262 60.519H70.2148L69.9471 60.6419L69.4995 60.7171L69.349 60.7809C69.2447 60.7777 69.1405 60.7912 69.0405 60.8209V60.8438L69.0176 60.8762V60.899L69.0843 60.8809V60.9057L68.9719 60.9371H68.7919L68.7033 60.9847L68.5909 60.9924L68.4557 61.0533L68.2757 61.1028L67.849 61.2467L67.7157 61.2362C67.6079 61.2277 67.4995 61.2407 67.3967 61.2743V61.2971L67.3738 61.3295V61.3409L67.2376 61.3905H66.9652L66.9214 61.4514L66.8052 61.5038L66.6243 61.5533L66.3148 61.6581C66.3052 61.7295 66.2948 61.8028 66.2833 61.8743L66.3786 61.8638L66.5643 61.8095Z" fill="#593D2D"/>
<path fill-rule="evenodd" clip-rule="evenodd" d="M87.0882 57.6563L87.1453 57.561L87.1682 57.2991L87.2263 56.9772L87.2473 56.7382C87.2758 56.7515 87.3139 56.6696 87.3606 56.4925L87.3263 56.302L87.3844 56.1029C87.4025 55.962 87.393 55.8839 87.3577 55.8677L87.2301 55.8105L87.2034 55.822V55.9477L87.1358 56.3182L87.0225 56.6877C87.0473 56.6991 87.0549 56.7439 87.0453 56.822L86.9911 57.1201L86.9482 57.2239L86.9663 57.2563L86.9234 57.361V57.4877L86.9015 57.4982V57.6229L86.8577 57.8648L86.792 58.0925V58.1372L86.7244 58.3553C86.7492 58.3667 86.7568 58.4115 86.7473 58.4896L86.6939 58.7848L86.6511 58.8877L86.6692 58.9201L86.6263 59.0239L86.6196 59.3163L86.4949 59.7496L86.4892 59.9048C86.4429 59.9966 86.4108 60.0949 86.3939 60.1963L86.4149 60.2058L86.433 60.2401L86.453 60.2496L86.4653 60.182L86.4873 60.1925L86.4673 60.3058L86.392 60.4658V60.561L86.352 60.6639V60.8105L86.3196 60.9896L86.2653 61.4258L86.1987 61.5391L86.1939 61.5629L86.2101 61.5944L86.1615 61.742L86.133 62.021L86.0225 62.2572L86.0453 62.301V62.3791L85.9815 62.7372L85.8711 63.0934C85.8949 63.1058 85.9025 63.1496 85.893 63.2248L85.8406 63.5105L85.7987 63.6115L85.8168 63.6429L85.7749 63.7429L85.7692 64.0286L85.6473 64.4505L85.6415 64.5458L85.6244 64.5544L85.5996 64.6886V64.8086C85.5796 64.7991 85.553 64.8591 85.5215 64.9896L85.5282 65.2086L85.4939 65.2658V65.2867L85.512 65.321L85.4777 65.3763L85.4473 65.6753L85.4368 65.7182C85.3984 65.7458 85.356 65.7673 85.3111 65.782L85.013 65.8077L84.9501 65.8496L84.9311 65.8553L84.9111 65.8382C84.8711 65.8505 84.8511 65.8705 84.8501 65.9001V65.981C84.8192 66.0141 84.7811 66.0395 84.7387 66.0553L84.5977 66.0972V65.9877L84.5587 65.9553L84.3987 66.0039L84.3158 66.0991L84.2968 66.1058L84.1758 66.1191C84.1263 66.1448 83.9568 66.2058 83.7873 66.2677L83.8749 66.1658L83.7139 66.2144L83.3282 66.3753C83.3282 66.3496 83.2625 66.3544 83.1282 66.3915L82.9863 66.4572L82.9653 66.4401L82.9044 66.5029L82.8634 66.5153L82.7225 66.5372V66.5582L82.7025 66.5877C82.694 66.5909 82.6857 66.5947 82.6777 66.5991V66.5848L82.6587 66.5677L82.473 66.6467L82.3311 66.6229L82.0453 66.7534L81.9006 66.7972L81.672 67.022L81.5273 67.0658V66.9763C81.5958 66.9553 81.6311 66.9229 81.632 66.881V66.8582L81.6111 66.8429L81.1349 67.0334C81.1349 67.0039 81.0663 67.0096 80.9282 67.0515L80.8454 67.0763L80.7844 67.1391L80.7625 67.1458L80.7425 67.0848C80.5901 67.1458 80.5139 67.1991 80.513 67.2448L80.2034 67.2915L80.1834 67.321L80.1644 67.3058L80.1254 67.2753L80.1054 67.281L80.0415 67.3448C80.0415 67.3448 80.0415 67.3515 80.0415 67.3563L79.9739 67.3839L79.7834 67.4191L79.6377 67.4848L79.4301 67.5258L79.3473 67.621L79.2834 67.6401C79.2834 67.5963 79.2701 67.5782 79.2425 67.5867L78.9501 67.6744C78.8927 67.6999 78.8384 67.7319 78.7882 67.7696L78.7368 67.7277L78.5901 67.7715C78.5625 67.7801 78.5482 67.8067 78.5482 67.8524L78.4225 67.8905L78.3815 67.8582L78.0234 68.0105L77.9206 68.0191L77.8987 68.0258L77.4996 68.1696H77.4158L77.332 68.2391L77.3101 68.2458L77.2901 68.2305L77.2263 68.2715L77.2463 68.3334V68.3553L77.2044 68.3677V68.2563L77.1625 68.2248L76.8044 68.3772L76.5101 68.4429C76.4541 68.4597 76.4001 68.4827 76.3492 68.5115L76.2901 68.4648L76.1415 68.5096C76.113 68.5182 76.0996 68.5448 76.0996 68.5905L75.973 68.6286L75.9301 68.5963L75.5682 68.7505L75.4634 68.7591L75.4415 68.7658L75.0377 68.9115H74.952L74.8673 68.982L74.8454 68.9886L74.8254 68.9734L74.7606 69.0144L74.7815 69.0772V69.0982L74.7387 69.1115V69.0001L74.6968 68.9677L74.3339 69.122L74.0349 69.1886C73.9754 69.2067 73.9182 69.2317 73.8644 69.2629V69.2305L73.8434 69.2153L73.653 69.2963L73.4625 69.3324L73.312 69.4001L73.0977 69.4429L73.013 69.5382L72.9473 69.5582C72.9473 69.5134 72.932 69.4963 72.9034 69.5048L72.6006 69.6001C72.5378 69.627 72.4783 69.6612 72.4234 69.702V69.6924L72.3796 69.661L72.3596 69.6667L72.2949 69.7315L72.1654 69.7705C71.933 69.841 71.8044 69.9255 71.7796 70.0239L71.7158 70.0429L71.7339 69.901L71.6901 69.8686L71.6673 69.8763L71.5815 69.9258L71.5606 69.9315L71.5377 69.9153C71.4949 69.9277 71.4739 69.9496 71.4749 69.9791L71.0415 70.1343L70.9539 70.1153C70.9254 70.1239 70.9111 70.1505 70.912 70.1953L70.8254 70.221L70.7587 70.1963L70.7377 70.202L70.673 70.2677L70.6501 70.1829L70.5844 70.2267L70.5615 70.2334L70.5406 70.2163L70.2549 70.3467C70.1825 70.3686 70.1387 70.3601 70.1225 70.3201L70.0358 70.3677V70.3915L70.0806 70.4239L70.0463 70.4877L69.9511 70.5086C69.8569 70.5471 69.7497 70.536 69.6654 70.4791L69.6215 70.4924L69.5787 70.5353L69.5215 70.5524C69.493 70.561 69.4787 70.5963 69.4806 70.6563C69.4479 70.6665 69.4161 70.6792 69.3854 70.6944C69.3435 70.6829 69.2644 70.6734 69.2635 70.6315V70.6105L69.2415 70.5924L68.7654 70.7829L68.3035 70.8782L68.1301 70.9553H68.0625C68.0625 70.9934 68.0063 71.0334 67.8901 71.0753L67.5577 71.1077L67.492 71.1515L67.4711 71.1582L67.4463 71.141C67.4268 71.1463 67.4092 71.1572 67.3958 71.1724L67.3815 71.161L66.8977 71.3515L66.4311 71.4467L66.2568 71.5239H66.1882C66.1882 71.562 66.132 71.6029 66.0149 71.6448L65.6787 71.6782L65.612 71.722L65.5911 71.7286L65.5711 71.7153L65.5377 71.3258C65.5454 71.2505 65.5777 71.2239 65.633 71.2458L65.6558 71.2553C65.6673 71.1533 65.6628 71.0502 65.6425 70.9496L65.6625 70.9572L65.6873 70.9448C65.6986 70.857 65.6915 70.7678 65.6663 70.6829V70.6591L65.6901 70.6458L65.633 70.5305C65.7054 70.5582 65.7549 70.5077 65.7825 70.3791L65.7044 70.2563L65.7606 70.1391V69.8848L65.7911 69.5686V69.3363C65.8196 69.3467 65.8501 69.2658 65.8806 69.0915L65.8311 68.9086L65.8711 68.7124C65.8745 68.658 65.8716 68.6034 65.8625 68.5496C65.9082 68.5496 65.9387 68.4772 65.952 68.3324L65.9396 68.2372V68.2134L65.9635 68.2001V68.1782L65.9444 68.1458L65.993 67.8601V67.6258L66.0273 67.4982L66.0206 67.3305L66.0635 67.1105L66.0787 66.7172L66.1235 66.4724V66.2134L66.1511 66.1534L66.1292 66.1458C66.1362 66.0683 66.1287 65.9901 66.1073 65.9153V65.8915L66.1311 65.8772L66.0739 65.761C66.1473 65.7877 66.1977 65.7353 66.2254 65.6029L66.1463 65.4791L66.2035 65.3582V65.0972L66.2339 64.7744V64.5363C66.2425 64.5363 66.2511 64.5363 66.2596 64.5201L66.2825 64.5077C66.2825 64.4924 66.2825 64.481 66.2825 64.4667C66.3004 64.4071 66.3144 64.3463 66.3244 64.2848L66.2739 64.0944V64.082C66.3215 64.0744 66.3568 64.0201 66.3777 63.9182L66.312 63.8134C66.312 63.7982 66.312 63.7848 66.312 63.7724L66.3596 63.6705V63.4086L66.3901 63.082V62.842C66.4206 62.8524 66.4511 62.7677 66.4854 62.5877L66.4349 62.3972L66.4758 62.1944C66.4815 62.0524 66.4654 61.9744 66.4292 61.962L66.2968 61.9153L66.2711 61.9296L66.2835 62.0553L66.2482 62.4296L66.1673 62.8105C66.193 62.8191 66.2044 62.8629 66.2006 62.942L66.173 63.2439L66.1387 63.3515L66.1596 63.382L66.1254 63.4896L66.1339 63.6163L66.113 63.6277L66.1254 63.7524L66.1025 63.9972L66.0568 64.2296V64.2744L66.013 64.4763C66.0396 64.4858 66.0501 64.5286 66.0473 64.6077L66.0196 64.9058L65.9854 65.0124L66.0063 65.0429L65.973 65.1496L65.9911 65.442L65.9044 65.8839L65.9092 66.0458C65.8707 66.1409 65.8472 66.2415 65.8396 66.3439L65.8606 66.3515L65.8815 66.3839L65.9025 66.3924L65.9092 66.3239L65.932 66.3324L65.9215 66.4467L65.8596 66.6124L65.873 66.7077L65.8406 66.8134L65.8492 66.9591L65.832 67.141L65.8149 67.5801L65.7587 67.6991V67.7229L65.7777 67.7524L65.7425 67.9039V68.1839L65.6473 68.4296L65.6739 68.4705L65.6825 68.5486L65.6482 68.9105L65.5692 69.2753C65.5939 69.2848 65.6054 69.3286 65.6025 69.4048L65.5749 69.6963L65.5368 69.8096L65.5577 69.8401L65.5244 69.9439L65.5435 70.2296L65.4577 70.6601V70.7553L65.4406 70.7658L65.4282 70.901L65.4406 71.021C65.4187 71.0124 65.3977 71.0753 65.3777 71.2115L65.4025 71.4296L65.3739 71.4886V71.5105L65.3939 71.5429L65.3654 71.6001V71.901V71.9201L65.5463 71.9772H65.553L65.9073 71.8696L66.0187 71.8115L66.0406 71.8296L66.2615 71.7344L66.833 71.6067L66.9196 71.5344L67.1873 71.4991L67.2949 71.421V71.3991L67.273 71.382V71.3601C67.3208 71.3351 67.3585 71.2944 67.3796 71.2448V71.3724L67.4254 71.4039L67.4463 71.3982V71.4201C67.517 71.3965 67.5861 71.3682 67.653 71.3353L67.7758 71.2982L67.8863 71.241L67.9073 71.2582L68.1273 71.1629L68.6987 71.0372L68.7854 70.9648L69.0492 70.9305L69.3092 70.8191V70.8515C69.3888 70.8278 69.4657 70.7959 69.5387 70.7563L69.6254 70.7058L69.8215 70.7153L70.0768 70.5924L70.2358 70.5448L70.3663 70.5267L70.3873 70.521L70.4092 70.4924L70.5406 70.4743L70.6492 70.4201L70.7577 70.4086L70.9301 70.3343L71.1273 70.321V70.2972L71.1482 70.2696L71.4511 70.1991L71.6663 70.1124H71.7987C71.968 70.0579 72.1343 69.9943 72.2968 69.922L72.3196 69.9363L72.4254 69.8591L72.9654 69.7639L73.0739 69.7077L73.2244 69.662L73.3758 69.6401L73.4396 69.5753L73.5682 69.5582L73.6339 69.5382L73.6539 69.5105V69.4877L73.633 69.4715C73.6739 69.4553 73.7082 69.4401 73.7387 69.4258L73.8044 69.4734L73.953 69.4277L74.253 69.361L74.3806 69.2772H74.4454L74.5301 69.2296L74.553 69.2229L74.573 69.2382L74.872 69.1029L75.1492 69.0639L75.2968 68.9982L76.1873 68.7734C76.2207 68.7623 76.2506 68.7426 76.2739 68.7163H76.2815L76.4273 68.6724L76.7234 68.6058L76.8501 68.5229H76.9139L76.9977 68.4763L77.0196 68.4696L77.0396 68.4848L77.3358 68.3505L77.6082 68.3134L77.7539 68.2477L78.633 68.0258C78.6579 68.0179 78.6809 68.0049 78.7006 67.9877L78.7834 67.9258L79.3054 67.8363L79.4101 67.781L79.5558 67.7372L79.7015 67.7163L79.7644 67.6524L79.8882 67.6363L79.9511 67.6172L79.9711 67.5896V67.5667L79.9511 67.5515C80.0006 67.5315 80.0396 67.5134 80.073 67.4972C80.0973 67.5325 80.1434 67.5454 80.1825 67.5277L80.2234 67.5153L80.3063 67.4686L80.3282 67.4629L80.3473 67.4782L80.4711 67.4191L80.5968 67.402C80.6794 67.3797 80.7568 67.3412 80.8244 67.2886L80.9473 67.2963L80.9673 67.2905L80.9882 67.2629L81.0101 67.2563L81.0292 67.2715L81.112 67.2248L81.2568 67.181C81.587 67.076 81.9228 66.9892 82.2625 66.921L82.5082 66.8029L82.5901 66.7896L82.6139 66.822L82.9196 66.6858L83.2806 66.621L83.3834 66.5686V66.5115L83.7863 66.4229L83.8053 66.4172L84.0673 66.361L84.1482 66.3134L84.7282 66.182C84.7901 66.1515 84.8377 66.1258 84.8777 66.1029L85.1977 66.0077L85.2996 65.9544L85.3177 65.9715L85.3977 65.9382C85.4279 65.9188 85.4598 65.9022 85.493 65.8886C85.5314 65.8744 85.5709 65.8632 85.6111 65.8553V65.8363L85.6368 65.6705L85.6596 65.6067V65.1001C85.6739 65.0258 85.7082 65.0048 85.7644 65.0296L85.7863 65.0401C85.806 64.9394 85.8104 64.8364 85.7996 64.7344L85.8187 64.7439L85.8444 64.7334C85.8625 64.6467 85.8625 64.5572 85.8444 64.4705V64.4477L85.8682 64.4353L85.8225 64.3163C85.892 64.3496 85.9453 64.3039 85.9834 64.1791L85.9168 64.0496L85.9825 63.9372L86.0044 63.6839L86.0615 63.3715L86.0815 63.1401C86.1092 63.1534 86.1463 63.0744 86.192 62.9039L86.1577 62.7134L86.2139 62.5229C86.2226 62.4688 86.2245 62.4137 86.2196 62.3591C86.2653 62.3591 86.3025 62.2944 86.3282 62.1515V62.0563V62.0324L86.352 62.0201V61.9991L86.3358 61.9658L86.4092 61.6801L86.4292 61.4467L86.4739 61.322L86.4825 61.1553L86.5434 60.9391L86.592 60.5486L86.6577 60.3086L86.6825 60.0515L86.7149 59.9934L86.6949 59.9839C86.7099 59.9075 86.7099 59.8289 86.6949 59.7524V59.7286L86.7196 59.7163L86.672 59.5953C86.7434 59.6286 86.7977 59.5801 86.8368 59.4515L86.7749 59.3334L86.8415 59.2182L86.8644 58.9582L86.9225 58.6391L86.9434 58.402C86.9511 58.402 86.9606 58.402 86.9701 58.3877L86.9939 58.3772C86.9939 58.362 86.9939 58.3505 86.9939 58.3363C87.0169 58.2785 87.036 58.2194 87.0511 58.1591L87.0168 57.9686V57.9563C87.0663 57.9563 87.1053 57.902 87.1358 57.802L87.0787 57.6925C87.0826 57.6806 87.0858 57.6685 87.0882 57.6563Z" fill="#593D2D"/>
<path opacity="0.47" fill-rule="evenodd" clip-rule="evenodd" d="M82.6622 78.1214L82.6041 78.5023L76.9203 80.3452C76.8555 80.3318 76.7898 80.3176 76.7251 80.3014C76.6365 80.2823 76.5498 80.2614 76.4612 80.2395C74.5558 79.7687 72.7393 78.9923 71.0822 77.9404C68.0012 76.009 66.6727 73.8718 66.346 71.7176C66.3336 71.6385 66.3231 71.5604 66.3136 71.4823C65.8508 67.5776 68.5755 63.649 70.0365 60.8157L70.1603 60.569C70.9022 59.0785 71.2412 57.9137 70.487 57.248C68.6441 55.629 68.6279 53.7976 67.5946 51.1776C67.5622 51.0966 67.5298 51.0147 67.4946 50.9328C67.491 50.9211 67.4865 50.9096 67.4812 50.8985C66.8203 49.3023 65.7622 47.4157 63.7031 45.1147C58.0736 38.8119 50.5841 37.3147 50.5841 37.3147C50.5841 37.3147 50.7898 37.1709 51.1822 36.9271L65.4079 33.248L92.2374 44.7661L88.2031 76.2337L82.6622 78.1214Z" fill="#FF920F"/>
<path fill-rule="evenodd" clip-rule="evenodd" d="M82.6014 78.4993L76.9185 80.3421L76.7052 80.4117L76.7233 80.2983L76.75 80.1374L77.4604 75.7345L83.2519 74.3555L82.6604 78.1221L82.6014 78.4993Z" fill="black"/>
<path fill-rule="evenodd" clip-rule="evenodd" d="M42.8269 74.125C42.8269 74.125 39.2717 75.004 41.286 77.6421C43.5917 80.6612 47.1984 80.0983 48.0317 77.3917C48.865 74.685 42.8269 74.125 42.8269 74.125Z" fill="#FED194"/>
<path fill-rule="evenodd" clip-rule="evenodd" d="M108.361 127.908C106.756 127.808 105.451 128.045 104.396 128.458C101.181 129.713 100.298 132.618 100.298 132.618C100.298 132.618 87.8317 120.413 83.8556 114.195C79.8794 107.977 82.1879 83.2428 82.1879 83.2428C82.1879 83.2428 92.1536 71.4952 96.066 76.4599C97.0746 77.7399 97.6165 80.1228 97.8689 82.9666C98.5984 91.1571 96.9375 103.166 97.1527 103.586C107.029 122.881 108.361 127.908 108.361 127.908Z" fill="#59302A"/>
<path fill-rule="evenodd" clip-rule="evenodd" d="M104.394 128.458C101.181 129.713 100.298 132.618 100.298 132.618C100.298 132.618 87.8317 120.413 83.8556 114.195C79.8794 107.977 82.1879 83.2428 82.1879 83.2428C82.1879 83.2428 92.1536 71.4952 96.066 76.4599C97.0746 77.7399 97.6165 80.1228 97.8689 82.9666C97.7689 83.0352 91.4117 87.4009 90.0479 93.8428C88.6736 100.336 86.5584 107.956 92.2384 116.45C96.7489 123.198 102.171 125.837 104.394 128.458Z" fill="#42211D"/>
<path fill-rule="evenodd" clip-rule="evenodd" d="M70.9337 84.5926C71.0547 84.6135 85.1318 87.345 86.7137 87.3031C88.2956 87.2611 80.4956 102.336 82.2099 108.955C82.2099 108.955 85.2251 99.1697 86.927 96.1297C88.6289 93.0897 91.3004 83.8135 97.7508 81.8735L96.9575 78.3926L70.9337 84.5926Z" fill="#27140E"/>
<path fill-rule="evenodd" clip-rule="evenodd" d="M81.8669 109.443C82.2964 118.097 79.0726 135.138 79.0726 135.138C76.2059 136.627 73.2888 136.757 71.2631 136.577C69.644 136.434 68.6021 136.1 68.6021 136.1C68.6021 136.1 66.964 124.472 66.1707 116.76C65.5869 111.067 65.5602 95.0024 65.5869 86.9738C65.5955 84.1243 65.6117 82.2862 65.6117 82.2862C65.6117 82.2862 89.8021 67.6872 90.5412 77.5548C91.2802 87.4224 81.4412 100.791 81.8669 109.443Z" fill="#663E36"/>
<path fill-rule="evenodd" clip-rule="evenodd" d="M81.868 109.442C82.2975 118.096 79.0737 135.137 79.0737 135.137C76.2071 136.626 73.2899 136.756 71.2642 136.576C76.3842 130.719 75.7213 113.368 76.7061 104.374C77.6909 95.3794 75.468 91.8822 71.8071 90.3832C69.61 89.4869 67.5233 88.341 65.588 86.968C65.5966 84.1184 65.6128 82.2803 65.6128 82.2803C65.6128 82.2803 89.8032 67.6813 90.5423 77.5489C91.2813 87.4165 81.4423 100.79 81.868 109.442Z" fill="#59302A"/>
<path fill-rule="evenodd" clip-rule="evenodd" d="M64.0275 80.3378V82.9387C64.0275 82.9387 72.0865 85.533 80.2475 85.473C88.4084 85.413 98.1303 80.652 98.1303 80.652L97.437 72.7559C97.437 72.7559 65.0989 74.2616 64.0275 80.3378Z" fill="white"/>
<path opacity="0.76" fill-rule="evenodd" clip-rule="evenodd" d="M97.8646 77.6275C97.8646 77.6275 90.0741 83.1675 79.3008 83.638C68.5275 84.1085 64.0275 82.938 64.0275 82.938V77.9761L97.7417 76.1895L97.8646 77.6275Z" fill="#D2D7DB"/>
<path fill-rule="evenodd" clip-rule="evenodd" d="M89.6526 27.268C89.6526 27.268 87.5659 28.948 88.1669 30.2451C88.7678 31.5422 84.0316 28.9546 85.4116 27.2299C86.7916 25.5051 91.6421 21.3946 91.7288 23.6699C91.8154 25.9451 89.6526 27.268 89.6526 27.268Z" fill="#72120C"/>
<path fill-rule="evenodd" clip-rule="evenodd" d="M76.4987 14.923C76.4987 14.923 75.0701 17.9934 74.9378 20.942C74.8054 23.8906 74.8292 27.0439 76.134 28.8153C77.4387 30.5868 79.7425 30.9687 79.7425 30.9687C79.7425 30.9687 79.592 34.6277 78.9673 35.5049C78.3425 36.382 79.9425 41.2658 81.2682 41.0134C82.5939 40.761 84.2492 40.3591 85.3111 37.8753C86.373 35.3915 86.3339 33.9601 86.3339 33.9601C86.3339 33.9601 85.5225 31.0439 86.0568 30.0725C86.5911 29.101 89.0416 26.3582 89.4501 24.9296C89.4501 24.9296 90.7958 25.0658 91.7054 24.3211C92.6149 23.5763 93.0254 21.1668 91.6863 20.9534C91.6863 20.9534 92.9244 17.0344 92.3387 15.6468C91.753 14.2592 85.453 11.2011 84.3339 11.0677C83.2149 10.9344 76.4987 14.923 76.4987 14.923Z" fill="#FED194"/>
<path fill-rule="evenodd" clip-rule="evenodd" d="M87.7465 22.5585C87.7465 22.5585 88.555 19.4061 88.0131 16.8375C87.4712 14.269 88.3998 11.4004 88.3998 11.4004C88.3998 11.4004 93.5427 12.3613 92.9969 16.2318C92.4512 20.1023 91.6874 20.9528 91.6874 20.9528C91.6874 20.9528 90.4684 20.7785 88.9255 22.3756C87.3827 23.9728 87.7465 22.5585 87.7465 22.5585Z" fill="#72120C"/>
<path fill-rule="evenodd" clip-rule="evenodd" d="M94.8065 21.5419C92.6665 26.5257 89.6541 27.2676 89.6541 27.2676C89.6541 27.2676 90.6837 26.2028 90.4913 23.0495C90.438 22.1809 90.0475 20.7581 89.5103 19.1533C88.0989 14.9381 85.6713 9.46474 85.6713 9.46474L84.4513 8.34379C84.4513 8.34379 87.7694 7.17332 90.8265 8.79617C93.0513 9.97713 96.9475 16.5581 94.8065 21.5419Z" fill="#578F53"/>
<path fill-rule="evenodd" clip-rule="evenodd" d="M92.7161 15.4083C91.3713 18.215 89.5103 19.155 89.5103 19.155C88.0989 14.9397 85.6713 9.4664 85.6713 9.4664L84.4513 8.34545C84.4513 8.34545 87.9256 6.9083 90.8265 8.79783L90.8808 8.83306C93.0523 10.2563 93.8366 13.0662 92.7161 15.4083Z" fill="white"/>
<path fill-rule="evenodd" clip-rule="evenodd" d="M90.0268 20.8095C88.2077 15.798 86.6029 12.7895 82.4858 12.5628C78.3687 12.3361 75.8344 16.6295 75.8344 16.6295C75.8344 16.6295 74.861 14.4266 73.9296 12.1638C74.1029 11.8952 74.1972 11.659 74.1791 11.4752C74.0839 10.5057 75.322 9.14281 74.2353 9.27043C73.9496 9.30471 73.5429 9.63328 73.1077 10.098C72.9106 9.58376 72.7353 9.10566 72.5972 8.69614C72.4673 8.33776 72.3648 7.97004 72.2906 7.59614C72.1781 6.75407 72.1497 5.90289 72.2058 5.05519C72.301 3.49233 72.682 1.75424 73.6439 0.800905C75.2239 -0.764809 80.5125 -0.356238 84.0068 4.94662C87.501 10.2495 90.0268 20.8095 90.0268 20.8095Z" fill="#578F53"/>
<path fill-rule="evenodd" clip-rule="evenodd" d="M87.9306 16.0662C87.8659 15.9567 84.7878 12.1548 82.0849 14.0948C79.4497 15.9891 74.863 16.8157 73.2659 12.9833C73.1508 12.7046 73.0553 12.4182 72.9802 12.1262C72.6421 10.8195 73.1945 9.85572 74.2392 9.27477C77.0345 7.71477 85.9516 11.3214 87.9306 16.0662Z" fill="#72120C"/>
<path fill-rule="evenodd" clip-rule="evenodd" d="M79.7447 30.9685C80.8005 31.0569 81.8634 30.9342 82.8713 30.6075C82.8713 30.6075 83.8704 30.0771 82.9313 31.6209C81.9923 33.1647 79.5294 33.4066 79.5294 33.4066L79.7447 30.9685Z" fill="#F59D4E"/>
<path fill-rule="evenodd" clip-rule="evenodd" d="M77.07 20.9887C77.161 20.5957 77.0635 20.2374 76.8524 20.1886C76.6413 20.1397 76.3964 20.4187 76.3054 20.8118C76.2145 21.2048 76.3119 21.563 76.523 21.6119C76.7342 21.6608 76.979 21.3817 77.07 20.9887Z" fill="#72120C"/>
<path fill-rule="evenodd" clip-rule="evenodd" d="M82.1774 21.9145C82.2684 21.5214 82.171 21.1632 81.9598 21.1143C81.7487 21.0655 81.5038 21.3445 81.4129 21.7376C81.3219 22.1306 81.4193 22.4888 81.6304 22.5377C81.8416 22.5865 82.0865 22.3075 82.1774 21.9145Z" fill="#72120C"/>
<path fill-rule="evenodd" clip-rule="evenodd" d="M81.6654 18.9045C81.6492 18.7892 81.7931 18.714 81.9073 18.6883C82.2712 18.6159 83.1788 18.5235 83.394 19.3311C83.5721 19.9978 83.2778 19.8311 83.2416 19.7264C83.1864 19.5645 83.0331 19.2188 82.8464 19.0826C82.4169 18.7702 81.7035 19.1683 81.6654 18.9045Z" fill="#72120C"/>
<path fill-rule="evenodd" clip-rule="evenodd" d="M75.8045 18.6084C75.735 18.5131 75.8226 18.3769 75.9112 18.3017C76.1969 18.0627 76.9436 17.5398 77.5236 18.1446C77.9998 18.6398 77.6636 18.6379 77.5817 18.5636C77.4541 18.4493 77.1531 18.2207 76.9245 18.1922C76.3969 18.1265 75.9655 18.8207 75.8045 18.6084Z" fill="#72120C"/>
<path fill-rule="evenodd" clip-rule="evenodd" d="M78.6837 21.1424C78.6753 21.5802 78.6207 22.016 78.5208 22.4424C78.4321 22.8671 78.3095 23.284 78.1541 23.6891C78.1122 23.7919 78.0713 23.8938 78.017 24.0062C77.9998 24.0388 77.9811 24.0706 77.9608 24.1014L77.9332 24.1471C77.9451 24.1294 77.9538 24.1098 77.9589 24.0891C77.9645 24.0663 77.9665 24.0429 77.9646 24.0195C77.9634 24.0029 77.9599 23.9866 77.9541 23.971C77.9514 23.9639 77.9478 23.9572 77.9437 23.951C77.9437 23.951 77.9379 23.9462 77.9437 23.951C77.9552 23.9724 77.9711 23.9912 77.9903 24.0062C78.0207 24.0333 78.0525 24.0587 78.0856 24.0824C78.163 24.1369 78.2431 24.1874 78.3256 24.2338C78.6956 24.4288 79.0773 24.6008 79.4684 24.7491V24.7871C79.0377 24.7646 78.6134 24.6723 78.2122 24.5138C78.1109 24.4762 78.0122 24.4316 77.917 24.3805C77.8182 24.3292 77.7297 24.2601 77.656 24.1767C77.6116 24.1284 77.5929 24.0619 77.6056 23.9976C77.6104 23.9812 77.6175 23.9655 77.6265 23.951L77.6456 23.9167C77.6583 23.8948 77.6698 23.8722 77.6798 23.8491C77.7237 23.7538 77.7627 23.6586 77.8008 23.5548C77.9551 23.1576 78.096 22.7538 78.236 22.3491L78.6484 21.1348L78.6837 21.1424Z" fill="#F59D4E"/>
<path fill-rule="evenodd" clip-rule="evenodd" d="M77.5981 26.8092C78.5371 26.9873 80.1971 27.1187 81.7048 26.3044C81.7185 26.2954 81.7361 26.2944 81.7508 26.3018C81.7655 26.3093 81.7751 26.324 81.776 26.3404C81.7769 26.3568 81.769 26.3725 81.7552 26.3815C80.8981 27.0006 79.2505 27.8739 77.5219 27.0396C77.4681 27.012 77.4424 26.9493 77.4614 26.8918C77.4804 26.8344 77.5384 26.7993 77.5981 26.8092Z" fill="#F59D4E"/>
<path fill-rule="evenodd" clip-rule="evenodd" d="M82.8189 23.5633C82.9162 23.5633 82.9951 23.4844 82.9951 23.3871C82.9951 23.2898 82.9162 23.2109 82.8189 23.2109C82.7216 23.2109 82.6427 23.2898 82.6427 23.3871C82.6427 23.4844 82.7216 23.5633 82.8189 23.5633Z" fill="#F59D4E"/>
<path fill-rule="evenodd" clip-rule="evenodd" d="M76.4947 22.7352C76.592 22.7352 76.6709 22.6563 76.6709 22.559C76.6709 22.4617 76.592 22.3828 76.4947 22.3828C76.3974 22.3828 76.3185 22.4617 76.3185 22.559C76.3185 22.6563 76.3974 22.7352 76.4947 22.7352Z" fill="#F59D4E"/>
<path fill-rule="evenodd" clip-rule="evenodd" d="M83.4647 23.8862C83.5336 23.8862 83.5895 23.8304 83.5895 23.7615C83.5895 23.6926 83.5336 23.6367 83.4647 23.6367C83.3958 23.6367 83.34 23.6926 83.34 23.7615C83.34 23.8304 83.3958 23.8862 83.4647 23.8862Z" fill="#F59D4E"/>
<path fill-rule="evenodd" clip-rule="evenodd" d="M75.5604 22.0151C75.6293 22.0151 75.6852 21.9593 75.6852 21.8904C75.6852 21.8215 75.6293 21.7656 75.5604 21.7656C75.4915 21.7656 75.4357 21.8215 75.4357 21.8904C75.4357 21.9593 75.4915 22.0151 75.5604 22.0151Z" fill="#F59D4E"/>
<path fill-rule="evenodd" clip-rule="evenodd" d="M75.5526 23.5972C75.6215 23.5972 75.6774 23.5413 75.6774 23.4724C75.6774 23.4035 75.6215 23.3477 75.5526 23.3477C75.4837 23.3477 75.4279 23.4035 75.4279 23.4724C75.4279 23.5413 75.4837 23.5972 75.5526 23.5972Z" fill="#F59D4E"/>
<path fill-rule="evenodd" clip-rule="evenodd" d="M83.6014 23.2964C83.6704 23.2964 83.7262 23.2405 83.7262 23.1716C83.7262 23.1027 83.6704 23.0469 83.6014 23.0469C83.5325 23.0469 83.4767 23.1027 83.4767 23.1716C83.4767 23.2405 83.5325 23.2964 83.6014 23.2964Z" fill="#F59D4E"/>
<path fill-rule="evenodd" clip-rule="evenodd" d="M82.0318 24.1219C82.1291 24.1219 82.208 24.043 82.208 23.9457C82.208 23.8484 82.1291 23.7695 82.0318 23.7695C81.9345 23.7695 81.8556 23.8484 81.8556 23.9457C81.8556 24.043 81.9345 24.1219 82.0318 24.1219Z" fill="#F59D4E"/>
<path fill-rule="evenodd" clip-rule="evenodd" d="M82.9172 24.6585C83.0419 24.6585 83.143 24.5574 83.143 24.4327C83.143 24.3081 83.0419 24.207 82.9172 24.207C82.7926 24.207 82.6915 24.3081 82.6915 24.4327C82.6915 24.5574 82.7926 24.6585 82.9172 24.6585Z" fill="#F59D4E"/>
<path fill-rule="evenodd" clip-rule="evenodd" d="M75.7395 22.8967C75.8642 22.8967 75.9652 22.7957 75.9652 22.671C75.9652 22.5464 75.8642 22.4453 75.7395 22.4453C75.6148 22.4453 75.5138 22.5464 75.5138 22.671C75.5138 22.7957 75.6148 22.8967 75.7395 22.8967Z" fill="#F59D4E"/>
<path fill-rule="evenodd" clip-rule="evenodd" d="M83.8547 24.4885C83.9794 24.4885 84.0805 24.3875 84.0805 24.2628C84.0805 24.1382 83.9794 24.0371 83.8547 24.0371C83.7301 24.0371 83.629 24.1382 83.629 24.2628C83.629 24.3875 83.7301 24.4885 83.8547 24.4885Z" fill="#F59D4E"/>
<path fill-rule="evenodd" clip-rule="evenodd" d="M98.305 76.2439C98.305 76.2439 98.026 77.7401 89.385 80.3153C85.805 81.382 82.6669 81.9915 79.4212 82.1563C74.8298 82.3887 70.026 81.7287 63.4669 80.2077C63.4669 80.2077 64.1831 66.2011 66.4412 59.8573C68.6993 53.5135 71.5898 39.6811 71.5898 39.6811C71.5898 39.6811 71.5374 39.3316 72.6622 38.6963C73.7869 38.0611 78.0574 35.8135 78.7422 35.7516C79.4269 35.6896 85.6164 36.3754 86.9783 33.5335C86.9783 33.5335 89.5221 33.1049 91.5812 34.1811C93.6402 35.2573 96.004 36.963 96.724 44.7716C97.444 52.5801 98.305 76.2439 98.305 76.2439Z" fill="#578F53"/>
<path fill-rule="evenodd" clip-rule="evenodd" d="M79.4403 82.1328C79.4328 82.1402 79.4258 82.1482 79.4194 82.1566C74.8279 82.3889 70.0241 81.7289 63.4651 80.208C63.4651 80.208 64.1813 66.2013 66.4394 59.8575C68.6975 53.5137 71.5879 39.6813 71.5879 39.6813C71.5879 39.6813 71.5356 39.3318 72.6603 38.6966C72.6603 38.6966 77.0841 37.8737 78.7337 44.7671C80.3832 51.6604 86.2422 74.3804 79.4403 82.1328Z" fill="#578F53"/>
<path fill-rule="evenodd" clip-rule="evenodd" d="M79.4403 82.1328C79.4328 82.1402 79.4258 82.1482 79.4194 82.1566C74.8279 82.3889 70.0241 81.7289 63.4651 80.208C63.4651 80.208 64.1813 66.2013 66.4394 59.8575C68.6975 53.5137 71.5879 39.6813 71.5879 39.6813C71.5879 39.6813 71.5356 39.3318 72.6603 38.6966C72.6603 38.6966 77.0841 37.8737 78.7337 44.7671C80.3832 51.6604 86.2422 74.3804 79.4403 82.1328Z" fill="black" fill-opacity="0.2"/>
<path fill-rule="evenodd" clip-rule="evenodd" d="M77.631 48.1562C77.631 48.1562 79.9719 55.3667 78.3062 61.1086C76.6405 66.8505 63.8948 74.561 63.8948 74.561L65.5853 59.6924L77.631 48.1562Z" fill="#578F53"/>
<path fill-rule="evenodd" clip-rule="evenodd" d="M77.631 48.1562C77.631 48.1562 79.9719 55.3667 78.3062 61.1086C76.6405 66.8505 63.8948 74.561 63.8948 74.561L65.5853 59.6924L77.631 48.1562Z" fill="black" fill-opacity="0.49"/>
<path fill-rule="evenodd" clip-rule="evenodd" d="M76.5696 59.5822C74.5944 62.4279 71.0401 62.6965 71.0401 62.6965C71.0401 62.6965 68.9553 64.8041 66.8106 66.8993C64.6658 68.9945 55.0591 77.6936 51.7258 78.5793C49.0153 79.2984 43.9277 78.0917 42.3868 75.2345C42.0121 74.5456 41.8632 73.7564 41.9611 72.9784C42.4858 68.5298 52.4801 64.8203 58.2134 56.8107C63.9468 48.8012 69.0468 41.205 71.5944 39.6812C72.8096 38.9546 73.8868 39.3393 74.682 39.9422C75.2386 40.3824 75.7129 40.9176 76.0829 41.5231C77.8706 45.2374 78.802 56.365 76.5696 59.5822Z" fill="white"/>
<path opacity="0.76" fill-rule="evenodd" clip-rule="evenodd" d="M76.964 58.8662C76.8572 59.1176 76.7258 59.3579 76.5716 59.5834C74.5964 62.43 71.0421 62.6967 71.0421 62.6967C71.0421 62.6967 68.9583 64.8053 66.8125 66.9005C64.6668 68.9957 55.0592 77.6948 51.7259 78.5814C49.0154 79.2995 43.9278 78.0938 42.3868 75.2357C57.7449 72.9338 74.9335 56.49 76.4954 52.1186C78.0573 47.7472 74.6859 39.9434 74.6859 39.9434C75.2411 40.384 75.714 40.9192 76.083 41.5243C77.7554 44.9957 78.6783 54.9614 76.964 58.8662Z" fill="#D2D7DB"/>
<path fill-rule="evenodd" clip-rule="evenodd" d="M76.965 58.866C76.8582 59.1174 76.7268 59.3576 76.5726 59.5831C74.5974 62.4298 71.0431 62.6965 71.0431 62.6965C71.0431 62.6965 74.4212 59.6669 75.0831 58.125C75.4298 57.3079 76.4421 57.8346 76.965 58.866Z" fill="#949A9B"/>
<path fill-rule="evenodd" clip-rule="evenodd" d="M78.8027 35.1674C78.8027 35.1674 85.3112 35.6027 86.5531 33.3341C86.5531 33.3341 86.6484 32.7836 87.9341 34.9474C87.9341 34.9474 86.5931 37.7617 81.2007 37.5703C75.8084 37.3788 75.9379 36.7474 75.9379 36.7474C75.9379 36.7474 77.5884 35.7579 78.8027 35.1674Z" fill="white"/>
<path d="M71.6564 87.543C71.6564 87.543 71.7516 125.028 72.4897 132.618" stroke="white" stroke-width="4" stroke-linecap="round"/>
</svg>
