<svg xmlns="http://www.w3.org/2000/svg" fill="none" viewBox="0 0 173 200">
  <path fill="#EDE4FF" fill-rule="evenodd" d="M4.517 186.068a12.811 12.811 0 0 1 7.296-3.187c18.005-1.794 108.741-10.214 126.478.506 19.71 11.914-6.497 11.581-31.555 14.914-23.689 3.146-119.597 3.364-102.22-12.233Z" clip-rule="evenodd"/>
  <path fill="#E6EEE5" fill-rule="evenodd" d="M161.586 117.21c-33.424 51.624-92.414 42.95-120.915 17.137 0 0-31.494-29.923-7.275-59.33C43.631 62.585 45.093 49.727 47.59 38.25 51 22.58 56.339 9.485 88.609 3.58c21.706-3.973 42.598 4.49 58.078 19.352 24.389 23.41 35.345 62.701 14.899 94.278Z" clip-rule="evenodd"/>
  <path fill="#578F53" fill-rule="evenodd" d="M161.587 117.21c-33.424 51.624-92.414 42.95-120.915 17.137 0 0-25.675-24.393-12.835-50.776 1.38-2.838 3.208-5.698 5.56-8.554C43.63 62.587 45.093 49.729 47.589 38.25c.017.3 1.584 27.29 31.002 18.46 22.86-6.862 41.316-30.375 68.096-33.782 13.727 13.171 23.198 31.384 25.207 50.413 1.567 14.786-1.369 30.065-10.307 43.869Z" clip-rule="evenodd"/>
  <path fill="#fff" fill-opacity=".4" fill-rule="evenodd" d="M161.587 117.21c-33.424 51.624-92.414 42.95-120.915 17.137 0 0-25.675-24.393-12.835-50.776 1.38-2.838 3.208-5.698 5.56-8.554C43.63 62.587 45.093 49.729 47.589 38.25c.017.3 1.584 27.29 31.002 18.46 22.86-6.862 41.316-30.375 68.096-33.782 13.727 13.171 23.198 31.384 25.207 50.413 1.567 14.786-1.369 30.065-10.307 43.869Z" clip-rule="evenodd"/>
  <path fill="#578F53" fill-rule="evenodd" d="M161.586 117.21c-33.424 51.624-92.414 42.95-120.915 17.137 0 0-11.969-11.371-15.475-26.982-1.63-7.254-1.433-15.424 2.64-23.794 12.377 7.064 40.084 19.725 60.298 5.53 22.507-15.808 58.088-39.668 83.762-15.756a71.54 71.54 0 0 1 .4 7.576c-.008 12.36-3.292 24.833-10.71 36.289Z" clip-rule="evenodd"/>
  <path fill="#578F53" fill-rule="evenodd" d="M161.586 117.211c-33.424 51.624-92.414 42.949-120.915 17.136 0 0-11.969-11.371-15.475-26.982 0 0 12.138 17.523 45.042 21.578 35.998 4.438 68.118-41.835 102.058-48.022-.008 12.36-3.292 24.833-10.71 36.29Z" clip-rule="evenodd"/>
  <path fill="#000" fill-opacity=".4" fill-rule="evenodd" d="M161.586 117.211c-33.424 51.624-92.414 42.949-120.915 17.136 0 0-11.969-11.371-15.475-26.982 0 0 12.138 17.523 45.042 21.578 35.998 4.438 68.118-41.835 102.058-48.022-.008 12.36-3.292 24.833-10.71 36.29Z" clip-rule="evenodd"/>
  <path fill="#E6EEE5" fill-rule="evenodd" d="M73.499 3.308C50.524 8.809 46.966 31.526 46.966 31.526L73.499 3.308Z" clip-rule="evenodd"/>
  <path stroke="#E6EEE5" stroke-linecap="round" d="M73.499 3.308C50.524 8.809 46.966 31.526 46.966 31.526"/>
  <path fill="#E6EEE5" fill-rule="evenodd" d="M77.274 2.86s8.023-1.795 11.2-1.86l-11.2 1.86Z" clip-rule="evenodd"/>
  <path stroke="#E6EEE5" stroke-linecap="round" d="M77.274 2.86s8.023-1.795 11.2-1.86"/>
  <path fill="#E6EEE5" fill-rule="evenodd" d="M1.178 60.332c2.68 14.196 20.981 18.374 29.55 6.743 6.364-8.638 11.904-21.175 5.864-34.822C25.421 7.013-2.772 37.79 1.057 59.683l.121.65Z" clip-rule="evenodd"/>
  <path fill="#72120C" fill-rule="evenodd" d="M117.101 39.346s-2.396 1.395-1.983 2.816c.414 1.422-4.031-1.964-2.352-3.514 1.68-1.55 7.285-5.004 7.019-2.661-.265 2.342-2.684 3.36-2.684 3.36Z" clip-rule="evenodd"/>
  <path fill="#949A9B" fill-rule="evenodd" d="M105.069 44.697s8.133-.107 8.883 1.143c.749 1.25-2.765 3.833-3.696 3.973-.932.139-5.472-2.778-5.417-3.556.044-.524.121-1.045.23-1.56Z" clip-rule="evenodd"/>
  <path fill="#FED194" fill-rule="evenodd" d="M105.554 24.668s-1.938 2.92-2.532 5.917c-.595 2.998-1.06 6.228 0 8.245 1.059 2.016 3.359 2.765 3.359 2.765s-.724 3.72-1.499 4.522c-.775.8.103 6.046 1.499 5.995 1.396-.051 3.153-.206 4.625-2.584 1.473-2.377 1.769-.948 1.769-.948s.157-6.254.853-7.163c.697-.91 2.984-3.101 3.624-4.497 0 0 1.357.349 2.403-.27 1.046-.62 1.841-3.025.504-3.451 0 0 1.88-3.818 1.493-5.33-.388-1.511-6.356-5.617-7.484-5.927-1.127-.31-8.614 2.726-8.614 2.726Z" clip-rule="evenodd"/>
  <path fill="#949A9B" fill-rule="evenodd" d="M102.648 49.817s-1.137 1.911-.306 3.94c.831 2.027 3.444 5.193 5.833 4.276 2.389-.918 5.876-5.833 5.881-7.194.006-1.36-4.11-.758-4.607-.435-.497.323-1.695.859-2.358 2.157 0 0-2.166-4.35-4.443-2.744Z" clip-rule="evenodd"/>
  <path fill="#fff" fill-rule="evenodd" d="M21.062 184.274a3.985 3.985 0 1 0 0-7.97 3.985 3.985 0 0 0 0 7.97Z" clip-rule="evenodd"/>
  <path fill="#FFB113" fill-rule="evenodd" d="M16.571 180.684a4.51 4.51 0 1 0 8.986-.79 4.51 4.51 0 0 0-8.986.79Zm.638-.056a3.869 3.869 0 1 1 7.708-.678 3.869 3.869 0 0 1-7.708.678Z" clip-rule="evenodd"/>
  <path fill="#000" fill-rule="evenodd" d="M15.023 183.434a6.806 6.806 0 1 0 12.071-6.292 6.806 6.806 0 0 0-12.07 6.292Zm1.544-2.755a4.51 4.51 0 0 1 4.097-4.888v.005a4.51 4.51 0 0 1 4.888 4.093 4.51 4.51 0 0 1-8.985.79Z" clip-rule="evenodd"/>
  <path fill="#FFB113" fill-rule="evenodd" d="M20.05 180.49a1.022 1.022 0 1 0 2.036-.18 1.022 1.022 0 0 0-2.036.18Z" clip-rule="evenodd"/>
  <path fill="#000" fill-rule="evenodd" d="M20.561 180.445a.511.511 0 1 0 1.019-.09.511.511 0 0 0-1.018.09Z" clip-rule="evenodd"/>
  <path fill="#FED194" fill-rule="evenodd" d="M102.393 21.254c.031.311.084.62.159.924-1.17.915-2.918 1.889-3.804 2.284-.56.248-1.728.742-3.02 1.35-1.19.561-2.484 1.22-3.507 1.876-.632.406-1.16.812-1.496 1.193-1.474 1.666-3.187-1.552-3.187-1.552s5.086-6.356 6.792-8.062c1.464-1.463 6.869-4.528 8.371-5.365l.388-.216-.189 3.681s-.141.12-.36.321c-.697.637-2.185 2.08-2.51 3.052-.425 1.28-.36.995-.36.995s1.317.026 3.174-2.532a1.62 1.62 0 0 1 1.283-.672c-1.163.432-1.877 1.332-1.734 2.723Z" clip-rule="evenodd"/>
  <path fill="#F59D4E" fill-rule="evenodd" d="M99.538 19.68c.214-.312.453-.606.715-.879.257-.272.527-.53.808-.775.282-.246.577-.477.883-.692a5.35 5.35 0 0 1 .986-.568 10 10 0 0 1-.745.853 13.974 13.974 0 0 1-1.687 1.46 7.32 7.32 0 0 1-.96.601Z" clip-rule="evenodd"/>
  <path fill="#fff" fill-rule="evenodd" d="M88.965 64.206c-6.187.875-15.248-5.125-17.186-10.45-.734-2.023-.057-5.236 1.178-8.568 2.018-5.446 5.519-11.207 6.76-12.603 2-2.249 3.624-2.311 3.624-2.311l3.167-3.63c3.317.126 4.833 2.589 4.833 2.589l-2.748 3.853s1 1.125.563 3.5c-.437 2.375-3.688 9.994-3.688 9.994 4.5-.584 6.7-.326 7.581-.137.165.031.328.077.484.137 0 0 .012.123.03.347.188 2.401 1.064 16.48-4.598 17.279Z" clip-rule="evenodd"/>
  <path fill="#D2D7DB" fill-rule="evenodd" d="M85.468 46.58s-1.438 4.25-3.127 6.065c-1.69 1.814 3.995.596 7.621-6.42.003 0-3.495.233-4.494.355Z" clip-rule="evenodd" opacity=".54"/>
  <path fill="#D2D7DB" fill-rule="evenodd" d="M88.965 64.206c-6.187.875-15.248-5.125-17.186-10.45-.734-2.022-.057-5.236 1.178-8.568-1.571 8.98 12.815 18.933 14.82 11.956 2.007-6.976 5.267-10.699 5.267-10.699s.196.175.513.484c.194 2.4 1.07 16.477-4.592 17.277Z" clip-rule="evenodd" opacity=".54"/>
  <path fill="#FED194" fill-rule="evenodd" d="M126.112 170.184v.066c-.11 1.57-.297 3.619-.485 5.529-.284 2.964-.578 5.591-.578 5.591l-5.199.861-.37-6.746-.303-5.529-.369-6.737-.303-5.507s3.371-.684 5.648 2.305c1.352 1.784 2.32 4.865 1.959 10.167Z" clip-rule="evenodd"/>
  <path fill="#F59D4E" fill-rule="evenodd" d="M126.108 170.184c-3.151.721-6.94-.223-6.94-.223l-.368-6.738c.61-1.031 1.677-1.99 3.436-2.713a6.563 6.563 0 0 1 1.908-.489c1.356 1.78 2.325 4.861 1.964 10.163Z" clip-rule="evenodd"/>
  <path fill="#FFB113" fill-rule="evenodd" d="M125.619 175.779c-.284 2.964-.578 5.591-.578 5.591l-5.199.86-.37-6.745c.408.216 2.987 1.431 6.147.294Z" clip-rule="evenodd"/>
  <path fill="#070208" fill-rule="evenodd" d="M125.96 183.75c.014.205-.025.959 0 1.119.178 1.042.485 1.664-5.427 3.546-6.823 2.172-11.04 2.602-13.404-.19-2.121-2.509 4.557-4.111 12.529-8.833-.04.108-.834 3.511 5.599 1.207.267-.095.362.247.413.527.208 1.103.222 1.62.29 2.624Z" clip-rule="evenodd"/>
  <path fill="#FFB113" fill-rule="evenodd" d="M120.536 188.415c-6.823 2.172-11.04 2.602-13.404-.189 0 0 2.69 1.821 6.935 1.033 3.468-.646 9.89-3.48 11.896-4.386.178 1.035.485 1.66-5.427 3.542Z" clip-rule="evenodd"/>
  <path fill="#fff" fill-rule="evenodd" d="M118.896 182.576a.23.23 0 0 1-.3-.099c-.705-1.309-1.494-1.635-1.502-1.638a.23.23 0 1 1 .166-.43c.038.015.947.379 1.741 1.85a.23.23 0 0 1-.094.312l-.011.005Zm-1.542.786a.23.23 0 0 1-.301-.095c-.705-1.309-1.494-1.635-1.502-1.638a.23.23 0 1 1 .166-.43c.038.015.947.379 1.742 1.85a.232.232 0 0 1-.095.312l-.01.001Zm-1.835 1.055a.23.23 0 0 1-.301-.095c-.705-1.308-1.494-1.634-1.502-1.638a.23.23 0 0 1 .166-.429c.038.014.948.379 1.742 1.848a.232.232 0 0 1-.095.312l-.01.002Z" clip-rule="evenodd"/>
  <path fill="#FED194" fill-rule="evenodd" d="M97.999 167.528v.066a214.51 214.51 0 0 1-.485 5.529c-.284 2.964-.578 5.591-.578 5.591l-5.199.86-.37-6.744-.304-5.53-.368-6.737-.303-5.507s3.371-.684 5.647 2.304c1.357 1.785 2.322 4.866 1.96 10.168Z" clip-rule="evenodd"/>
  <path fill="#F59D4E" fill-rule="evenodd" d="M97.998 167.527c-3.15.722-6.939-.223-6.939-.223l-.369-6.737c.61-1.032 1.678-1.99 3.436-2.714a6.566 6.566 0 0 1 1.909-.489c1.36 1.78 2.325 4.862 1.963 10.163Z" clip-rule="evenodd"/>
  <path fill="#FFB113" fill-rule="evenodd" d="M97.513 173.123c-.284 2.964-.578 5.591-.578 5.591l-5.198.86-.37-6.744c.408.215 2.987 1.431 6.146.293Z" clip-rule="evenodd"/>
  <path fill="#070208" fill-rule="evenodd" d="M97.853 181.093c.014.205-.025.959 0 1.119.178 1.042.485 1.664-5.427 3.547-6.823 2.171-11.04 2.601-13.404-.19-2.121-2.509 4.557-4.112 12.529-8.834-.04.107-.834 3.507 5.599 1.208.267-.095.361.246.413.526.207 1.104.221 1.621.29 2.624Z" clip-rule="evenodd"/>
  <path fill="#FFB113" fill-rule="evenodd" d="M92.426 185.759c-6.822 2.172-11.04 2.601-13.404-.19 0 0 2.69 1.821 6.936 1.032 3.467-.644 9.89-3.478 11.895-4.385.178 1.035.486 1.66-5.427 3.543Z" clip-rule="evenodd"/>
  <path fill="#fff" fill-rule="evenodd" d="M90.786 179.919a.229.229 0 0 1-.3-.095c-.705-1.308-1.495-1.635-1.502-1.638a.23.23 0 0 1 .166-.429c.037.014.947.379 1.741 1.848a.23.23 0 0 1-.095.312l-.01.002Zm-1.542.785a.23.23 0 0 1-.301-.095c-.705-1.308-1.495-1.634-1.502-1.638a.23.23 0 0 1 .166-.429c.037.014.947.379 1.741 1.849a.229.229 0 0 1-.094.311l-.01.002Zm-1.834 1.057a.23.23 0 0 1-.3-.1c-.705-1.308-1.495-1.634-1.502-1.637a.23.23 0 1 1 .165-.43c.038.015.948.379 1.742 1.849a.231.231 0 0 1-.095.312l-.01.006Z" clip-rule="evenodd"/>
  <path fill="#663E36" fill-rule="evenodd" d="M127.414 171.966a17.846 17.846 0 0 1-6.374 1.12 13.146 13.146 0 0 1-3.949-.641s-2.999-23.143-4.998-29.476c-2-6.333-6.667-30.664-6.667-30.664s-3.499 24.164-3.417 28.83c.083 4.666-2.748 30.998-2.748 30.998s-7.916.663-10.583-1.083c0 0-.12-3.248-.324-7.411-.304-6.211-.793-14.46-1.342-17.004-.916-4.25-1-19.994-1-19.994s.347-13.968 1.492-23.864c.627-5.429 1.494-9.633 2.674-9.633 3.334 0 37.788 8.365 37.788 8.365s-1.672 24.798-.898 33.298c.774 8.5 2.419 29.993.346 37.159Z" clip-rule="evenodd"/>
  <path fill="#59302A" fill-rule="evenodd" d="M127.413 171.966a17.837 17.837 0 0 1-6.373 1.12c5.073-5.92-.825-35.575-.074-45.449.75-9.873-4.249-21.498-12.151-21.873s-21.312-2.991-21.312-2.991c.626-5.429 1.493-9.632 2.674-9.632 3.334 0 37.788 8.364 37.788 8.364s-1.673 24.798-.898 33.298c.774 8.5 2.42 29.997.346 37.163Z" clip-rule="evenodd"/>
  <path fill="#59302A" fill-rule="evenodd" d="M102.006 141.136c.083 4.667-2.748 30.997-2.748 30.997s-7.917.664-10.583-1.083c0 0-.12-3.247-.324-7.41 5.632-.245 10.742-25.661 11.49-32.003 2.666-22.581 5.583-19.331 5.583-19.331s-3.501 24.164-3.418 28.83Z" clip-rule="evenodd"/>
  <path fill="#42211D" fill-rule="evenodd" d="M93.702 101.304s10.835 1.421 14.383 2.464c3.548 1.042 7.006 1.458 11.466 1.875 4.46.417 7.218 4 7.754 7.624l.664-11.758s-31.7-5.042-34.267-.205Z" clip-rule="evenodd"/>
  <path fill="#27140E" fill-rule="evenodd" d="M107.218 102.374c.337.02 20.553 2.597 20.553 2.597l.196-3.465-20.749.868Z" clip-rule="evenodd"/>
  <path fill="#578F53" fill-rule="evenodd" d="M131.214 79.79c-.04.873-.12 1.588-.248 2.102-1.25 5-1.946 18.171-1.946 18.171s-19.178 4.327-44.091-2.006c0 0 .325-4.103.724-8.907.16-1.923.33-3.957.498-5.889.262-3.017.514-5.78.694-7.45.584-5.417 1.5-22.998 6.416-29.66 0 0 .334-.38 1.25-.251.916.129 9.165-.176 9.165-.176l-.947 4.685s-.333 3.657 3.032 4.548c3.365.892 6.918-2.748 7.137-3.333.22-.584 1.945-4.888 1.945-4.888s2.055.917 3.944 1.471c1.406.414 5.073 1.074 7.325 2.014.775.323 1.382.68 1.673 1.07 1.022 1.364 3.777 20.889 3.429 28.5Z" clip-rule="evenodd"/>
  <path fill="#fff" fill-rule="evenodd" d="M88.47 100.766s30.638 3.483 40.179 1.275l-.503-2.957-40.885-2.147 1.209 3.829Z" clip-rule="evenodd"/>
  <path fill="#578F53" fill-rule="evenodd" d="M130.966 81.892c-1.25 5-1.946 18.17-1.946 18.17s-19.178 4.328-44.091-2.005c0 0 .636-8.042 1.222-14.797 0 0 6.319 12.256 21.066 3.194 14.746-9.062 11.939-27.06 13.447-31.713 1.508-4.654 5.447-4.527 5.447-4.527.775.323 1.383.68 1.673 1.07 1.14 1.528 4.431 25.608 3.182 30.608Z" clip-rule="evenodd"/>
  <path fill="#000" fill-opacity=".2" fill-rule="evenodd" d="M130.966 81.892c-1.25 5-1.946 18.17-1.946 18.17s-19.178 4.328-44.091-2.005c0 0 .636-8.042 1.222-14.797 0 0 6.319 12.256 21.066 3.194 14.746-9.062 11.939-27.06 13.447-31.713 1.508-4.654 5.447-4.527 5.447-4.527.775.323 1.383.68 1.673 1.07 1.14 1.528 4.431 25.608 3.182 30.608Z" clip-rule="evenodd"/>
  <path fill="#578F53" fill-rule="evenodd" d="M131.214 79.79c-.04.873-.12 1.589-.248 2.102-1.25 5-1.946 18.171-1.946 18.171s-11.508 2.596-28.274.823a112.033 112.033 0 0 1-15.817-2.828s.325-4.104.724-8.908c20.639 11.59 36.813-7.07 35.44-12.13-1.373-5.06-.648-9.684-.648-9.684s2.826 3.26 4.897 4.388c.285.153.813.739 1.521 1.656 1.115 1.44 2.668 3.714 4.351 6.41Z" clip-rule="evenodd"/>
  <path fill="#000" fill-opacity=".4" fill-rule="evenodd" d="M131.214 79.79c-.04.873-.12 1.589-.248 2.102-1.25 5-1.946 18.171-1.946 18.171s-11.508 2.596-28.274.823a112.033 112.033 0 0 1-15.817-2.828s.325-4.104.724-8.908c20.639 11.59 36.813-7.07 35.44-12.13-1.373-5.06-.648-9.684-.648-9.684s2.826 3.26 4.897 4.388c.285.153.813.739 1.521 1.656 1.115 1.44 2.668 3.714 4.351 6.41Z" clip-rule="evenodd"/>
  <path fill="#72120C" fill-rule="evenodd" d="M115.88 34.23s1.318-3.101 1.163-5.814c-.155-2.713 1.24-5.505 1.24-5.505s5.118 1.784 3.955 5.66c-1.163 3.875-2.074 4.631-2.074 4.631s-1.221-.367-3.043 1.027c-1.823 1.395-1.241 0-1.241 0Z" clip-rule="evenodd"/>
  <path fill="#578F53" fill-rule="evenodd" d="M123.268 34.287c-2.964 4.768-6.159 5.059-6.159 5.059s1.219-.93 1.516-4.187c.081-.897-.095-2.414-.398-4.14-.789-4.533-2.423-10.512-2.423-10.512l-1.075-1.337s3.578-.683 6.455 1.454c2.084 1.554 5.045 8.899 2.084 13.663Z" clip-rule="evenodd"/>
  <path fill="#fff" fill-rule="evenodd" d="M122.078 27.683c-1.812 2.664-3.863 3.337-3.863 3.337-.789-4.533-2.423-10.512-2.423-10.512l-1.074-1.337s3.779-.93 6.454 1.454l.05.044a5.367 5.367 0 0 1 .856 7.014Z" clip-rule="evenodd"/>
  <path fill="#578F53" fill-rule="evenodd" d="M118.484 32.793c-1.083-5.411-2.257-8.738-6.436-9.611-4.179-.873-7.439 3.127-7.439 3.127s-.654-2.405-1.252-4.866c.219-.247.353-.474.362-.663.051-1.008 1.537-2.21.401-2.248-.302-.01-.766.263-1.283.672a36.822 36.822 0 0 1-.304-1.516 7.728 7.728 0 0 1-.143-1.174c.015-.88.118-1.755.308-2.613.341-1.585.999-3.304 2.133-4.13 1.86-1.358 7.209-.117 9.961 5.852 2.752 5.969 3.692 17.17 3.692 17.17Z" clip-rule="evenodd"/>
  <path fill="#FED194" fill-rule="evenodd" d="M103.722 20.779c-.01.19-.143.418-.362.663a6.252 6.252 0 0 1-.809.735 6.573 6.573 0 0 1-.159-.924c-.143-1.391.569-2.292 1.731-2.724 1.135.042-.35 1.244-.401 2.25Z" clip-rule="evenodd"/>
  <path fill="#72120C" fill-rule="evenodd" d="M117.082 27.612c-.05-.122-2.613-4.491-5.677-2.925-2.991 1.528-7.813 1.661-8.851-2.51.29-.22.561-.466.808-.734.219-.247.353-.474.362-.663.051-1.007 1.536-2.208.402-2.248 3.102-1.159 11.668 3.917 12.956 9.08Z" clip-rule="evenodd"/>
  <path fill="#fff" fill-rule="evenodd" d="M113.95 45.84s-.068.639-1.603 1.8c-1.535 1.162-4.927 3.472-5.258 4.917 0 0 1.472-2.275 3.43-1.555 1.958.719 3.82 4.083 3.82 4.083s1.332-5.333 1.055-8.11c0 0-.028-.584-.639-1.029-.611-.444-.805-.106-.805-.106Z" clip-rule="evenodd"/>
  <path fill="#fff" fill-rule="evenodd" d="M105.15 44.896s.416 4.61 1.943 7.665c0 0-3.304-4.082-7.39 1.195 0 0 2.721-5.694 2.721-7.638 0 0-.167-.5.556-.639.723-.14 2.076-1.387 2.17-.583Z" clip-rule="evenodd"/>
  <path fill="#AA1F15" fill-rule="evenodd" d="m60.863 190.592 42.295-81.352s3.655-7.05 4.559-7.496c1.516-.75 5.374.021 5.374.021v-4.104l-4.832.23a3.716 3.716 0 0 0-3.196 1.82c-1.368 2.306-3.658 6.241-4.659 8.4-1.477 3.183-41.856 79.778-41.856 79.778l2.315 2.703Z" clip-rule="evenodd"/>
  <path fill="#070208" fill-rule="evenodd" d="m97.536 113.697-26.015-7.312-51.89 71.511 38.918 9.993 38.987-74.192Z" clip-rule="evenodd"/>
  <path fill="#FFAD01" fill-rule="evenodd" d="m40.12 112.144 8.506-14.76 30.422 4.835-8.24 14.843-30.688-4.918Z" clip-rule="evenodd"/>
  <path fill="#F47204" fill-rule="evenodd" d="m79.048 102.219 9.763 17.908-7.09 13.799-10.913-16.865 8.24-14.842Z" clip-rule="evenodd"/>
  <path fill="#949A9B" fill-rule="evenodd" d="M86.636 46.47s-.697 2.71-3.696 5.421c0 0 1.463-1.955 2.526-5.307l1.17-.113Z" clip-rule="evenodd"/>
  <path fill="#FFAD01" fill-rule="evenodd" d="m39.508 107.023-13.523 26.016 30.965 7.772 14.323-27.558-31.765-6.23Z" clip-rule="evenodd"/>
  <path fill="#FF920F" fill-rule="evenodd" d="m70.342 113.546-30.545-6.025-7.651 14.719s18.132-9.494 36.226-4.904l1.97-3.79Z" clip-rule="evenodd"/>
  <path fill="#DD5E00" fill-rule="evenodd" d="m71.271 113.253 13.67 20.322-13.322 25.631-14.67-18.396 14.322-27.557Z" clip-rule="evenodd"/>
  <path fill="#D95F16" fill-rule="evenodd" d="m71.62 159.206-26.508-6.924-19.127-19.243 30.965 7.771 14.67 18.396Z" clip-rule="evenodd"/>
  <path fill="#fff" fill-rule="evenodd" d="m57.465 110.546-13.976 26.888 16.135 18.64-6.01-1.57-17.22-18.851 13.791-26.535 7.28 1.428Z" clip-rule="evenodd"/>
  <path stroke="#A73E5C" stroke-linecap="round" stroke-linejoin="round" stroke-width="1.42" d="m57.56 134.983-1.827-.477m-.936-.245-1.107-.288m-.836-.217-4.039-1.054m-.834-.169-.38-.148m9.439 3.696-3.451-.901m-.866-.225-.576-.149m-1.324-.347-3.746-.977m9.439 3.696-2.53-.659m-1.5-.391-1.323-.345m-.863-.182-.403-.148m-.863-.225-2.48-.647m9.437 3.695-7.478-1.95m-.606-.158-1.873-.488"/>
  <path fill="#949A9B" fill-rule="evenodd" d="m59.624 156.073-16.135-18.64-7.095-1.781 17.22 18.851 6.01 1.57Zm23.719-125.8s3 .25 5.25 2.812l2.748-3.854s-2.459.458-4.437.792c-1.176.2-2.369.284-3.561.25Z" clip-rule="evenodd"/>
  <path fill="#FFAD01" fill-rule="evenodd" d="M23.533 130.438 8.706 158.965l33.953 8.522 15.707-30.218-34.833-6.831Z" clip-rule="evenodd"/>
  <path fill="#FF920F" fill-rule="evenodd" d="m57.346 137.59-33.494-6.608-8.388 16.14s19.882-10.41 39.723-5.378l2.16-4.154Z" clip-rule="evenodd"/>
  <path fill="#F47204" fill-rule="evenodd" d="m58.366 137.269 14.99 22.285-14.61 28.105-16.087-20.172 15.707-30.218Z" clip-rule="evenodd"/>
  <path fill="#D95F16" fill-rule="evenodd" d="m58.747 187.659-29.068-7.594-20.973-21.1 33.953 8.522 16.088 20.172Z" clip-rule="evenodd"/>
  <path fill="#fff" fill-rule="evenodd" d="m43.23 134.3-15.325 29.484 17.693 20.44-6.59-1.722-18.884-20.671 15.124-29.097 7.982 1.566Z" clip-rule="evenodd"/>
  <path stroke="#A73E5C" stroke-linecap="round" stroke-linejoin="round" stroke-width="1.42" d="m43.33 161.096-2-.522m-1.034-.269-1.213-.317m-.907-.237-4.429-1.155m-.92-.2-.418-.148m10.351 4.053-3.784-.988m-.947-.247-.632-.164m-1.451-.379-4.107-1.072m10.346 4.053-2.776-.724m-1.643-.427-1.45-.379m-.942-.215-.441-.148m-.949-.246-2.72-.71m10.349 4.053-8.2-2.139m-.667-.174-2.054-.536"/>
  <path fill="#070208" fill-rule="evenodd" d="m18.92 153.318.308 1.972-.725-.154-1.17 2.253-.951-.202 1.17-2.253-.726-.153 2.093-1.463Zm-2.964-.63.309 1.971-.726-.153-1.172 2.252-.95-.201 1.171-2.253-.726-.154 2.094-1.462Zm-2.946 4.639 3.94.838.282-.541-3.94-.838-.281.541Z" clip-rule="evenodd"/>
  <path fill="#070208" fill-rule="evenodd" d="m11.046 157.723 7.096 1.508 3.222-6.208-7.096-1.507-3.222 6.207Zm7.054 1.405-6.917-1.469 3.134-6.036 6.918 1.469-3.135 6.036Z" clip-rule="evenodd"/>
  <path fill="#949A9B" fill-rule="evenodd" d="m45.598 184.224-17.693-20.44-7.78-1.953 18.882 20.671 6.59 1.722Z" clip-rule="evenodd"/>
  <path fill="#D95F16" fill-rule="evenodd" d="m43.636 167.59 14.938-28.74 5.027 7.713s-3.397-2.242-9.622 7.153c-6.225 9.394-9.233 15.18-9.233 15.18l-1.11-1.306Z" clip-rule="evenodd" opacity=".5"/>
  <path fill="#070208" fill-rule="evenodd" d="m60.862 190.592-39.415-9.85-11.762-14.608 38.412 9.248 12.765 15.21Z" clip-rule="evenodd"/>
  <path fill="#FED194" fill-rule="evenodd" d="M121.766 98.522c-1.032 1.795-2.379 3.491-3.427 4.508-.634.614-1.158.979-1.441.968-.751-.027-.556-.611-1.473-.5-.917.111-1.5-.194-1.749-.36-.25-.166-.474.111-1.083.222-.61.111-1.917-.555-2.333-.445-.379.102-1.18-.075-1.314-.616a.678.678 0 0 1-.02-.162c0-.663 1.75-1.305 2.389-1.749.64-.443 1.611-2.25 1.583-2.5-.029-.25-1.916 0-1.916 0h-2.167c.293-.463.626-.9.997-1.303.556-.583 1.417-1.084 2.972-1.361 1.555-.278 3.055.166 3.055.166.178-.144.378-.26.591-.344 2.29-.931 6.847.848 5.336 3.476Z" clip-rule="evenodd"/>
  <path fill="#F59D4E" fill-rule="evenodd" d="M121.764 98.522c-1.032 1.795-2.379 3.491-3.427 4.508.033-.038.583-.683.917-3.561.346-2.97-2.896-4.191-2.896-4.191a1.68 1.68 0 0 1 .071-.232c2.289-.931 6.846.848 5.335 3.476Z" clip-rule="evenodd"/>
  <path fill="#fff" fill-rule="evenodd" d="M137.011 88.89c-1.5 2.126-8.945 8.014-10.195 8.305-1.25.292-1.846-.473-1.846-.473l-1.541 1.105-2.285 1.639c.055-.052.228-.908-.314-2.207-1.241-2.977-4.983-1.872-4.983-1.872l2.541-2.832c-1.458-1.875 9.083-10.045 9.083-10.045-1.542-2.748-2.748-6.832-2.748-6.832-6.041.542-4.75-18.497-2.167-22.248 2.582-3.75 5.235-2.152 5.235-2.152 4.106 1.874 7.305 8.777 9.222 15.61.836 2.978 1.228 7.138 1.28 11.059.061 5.075-.44 9.746-1.282 10.944Z" clip-rule="evenodd"/>
  <path fill="#D2D7DB" fill-rule="evenodd" d="m122.378 67.477 2.333 8.207c-6.041.542-4.749-18.497-2.167-22.248 2.583-3.75 5.236-2.152 5.236-2.152s-8.485.152-5.402 16.193Z" clip-rule="evenodd" opacity=".54"/>
  <path fill="#949A9B" fill-rule="evenodd" d="M127.465 82.516s2.764-1.79 5.569-.379c0 0 1.055-.14-.556-1.277-1.611-1.138-5.667.379-5.667.379l.654 1.277Zm-4.985-14.698s-.555-.675-.263 1.95c.291 2.625.611 5.307.611 5.307a2.263 2.263 0 0 0 1.888.608" clip-rule="evenodd"/>
  <path fill="#D2D7DB" fill-rule="evenodd" d="M137.009 88.891c-1.5 2.126-8.944 8.013-10.194 8.305-1.25.292-1.846-.474-1.846-.474l-3.827 2.749c2.87-3.468-.748-7.08-.748-7.08 5.673 2.313 9.95-.31 13.387-3.373 3.438-3.061 4.508-11.064 4.508-11.064.064 5.069-.438 9.74-1.28 10.937Z" clip-rule="evenodd" opacity=".54"/>
  <path fill="#949A9B" fill-rule="evenodd" d="M124.961 96.725s.056-2.14-4.575-4.334c0 0 3.355 1.65 3.716 4.949l.859-.615Z" clip-rule="evenodd"/>
  <path fill="#F59D4E" fill-rule="evenodd" d="M108.945 102.3a.636.636 0 0 1-.02-.162c0-.663 1.749-1.306 2.389-1.749.639-.444 1.611-2.25 1.582-2.5-.028-.25-1.916 0-1.916 0h-.306s2.938-1.126 3.209-.38c.271.747-1.399 4.161-4.938 4.791Zm-6.203-87.142c-2.25 2.305-5.26 3.954-7.012 10.654-1.19.561-2.484 1.22-3.506 1.877h.005c1.502-1.195 4.373-6.34 5.126-7.914.424-.895 5.352-4.59 5.387-4.617Z" clip-rule="evenodd"/>
  <path fill="#AA1F15" fill-rule="evenodd" d="m9.685 166.134 1.555-1.972 38.023 9.322 11.229 13.493-2.236.51-10.16-12.104-38.411-9.249Z" clip-rule="evenodd"/>
  <path fill="#fff" fill-rule="evenodd" d="M59.972 193.985a3.985 3.985 0 1 0 0-7.97 3.985 3.985 0 0 0 0 7.97Z" clip-rule="evenodd"/>
  <path fill="#FFB113" fill-rule="evenodd" d="M55.48 190.395a4.51 4.51 0 1 0 8.985-.79 4.51 4.51 0 0 0-8.986.79Zm.803-1.557a3.87 3.87 0 1 1 7.382 2.325 3.87 3.87 0 0 1-7.382-2.325Z" clip-rule="evenodd"/>
  <path fill="#000" fill-rule="evenodd" d="M53.94 193.143a6.806 6.806 0 1 0 12.07-6.292 6.806 6.806 0 0 0-12.07 6.292Zm1.543-2.755a4.51 4.51 0 0 1 4.097-4.888v.008a4.51 4.51 0 0 1 4.888 4.09 4.51 4.51 0 0 1-8.985.79Z" clip-rule="evenodd"/>
  <path fill="#FFB113" fill-rule="evenodd" d="M58.964 190.201a1.022 1.022 0 1 0 2.036-.18 1.022 1.022 0 0 0-2.036.18Z" clip-rule="evenodd"/>
  <path fill="#000" fill-rule="evenodd" d="M59.476 190.157a.511.511 0 1 0 1.018-.09.511.511 0 0 0-1.018.09Z" clip-rule="evenodd"/>
  <path fill="#F59D4E" fill-rule="evenodd" d="M106.385 41.594a8.28 8.28 0 0 0 3.256.116s1.104-.387-.095 1.043c-1.198 1.43-3.758 1.299-3.758 1.299l.597-2.458Z" clip-rule="evenodd"/>
  <path fill="#72120C" fill-rule="evenodd" d="M105.217 30.98c.155-.388.11-.77-.098-.853-.209-.082-.503.165-.657.553-.154.388-.11.77.098.853.209.083.503-.165.657-.553Zm5.082 1.74c.155-.388.111-.77-.098-.852-.209-.083-.503.164-.657.552-.154.388-.11.77.098.853.209.083.503-.164.657-.553Zm-.03-3.348c0-.095.135-.132.241-.132.338 0 1.17.068 1.282.726.095.542-.157.369-.179.284-.034-.134-.137-.425-.292-.559-.358-.31-1.046-.109-1.052-.319Zm-5.992-1.042c-.058-.106.054-.234.156-.297.327-.201 1.175-.616 1.675.095.412.581.067.526-.006.437-.113-.137-.385-.418-.615-.482-.53-.153-1.074.493-1.21.247Z" clip-rule="evenodd"/>
  <path fill="#F59D4E" fill-rule="evenodd" d="M106.823 31.375a6.695 6.695 0 0 1-.379 1.302 8.95 8.95 0 0 1-.569 1.215c-.058.095-.115.197-.189.303a.994.994 0 0 1-.072.094l-.021.025-.01.012s-.011.012 0 .005a.204.204 0 0 0 .048-.118.187.187 0 0 0 0-.048.05.05 0 0 0-.008-.02.2.2 0 0 0 .042.069.941.941 0 0 0 .088.094c.068.062.145.127.226.19.35.255.717.488 1.097.696l-.008.037a4.152 4.152 0 0 1-1.244-.474 2.493 2.493 0 0 1-.278-.189.919.919 0 0 1-.236-.25.213.213 0 0 1-.023-.189.184.184 0 0 1 .028-.043l.025-.033a.59.59 0 0 0 .046-.064c.06-.095.115-.19.169-.284.22-.38.428-.774.632-1.167l.611-1.179.025.016Zm-1.99 5.627c.934.328 2.612.72 4.283.122a.048.048 0 0 1 .063.024.049.049 0 0 1-.025.063c-.971.501-2.795 1.137-4.434.015a.127.127 0 0 1 .113-.224Zm5.876-2.507a.183.183 0 1 0 0-.366.183.183 0 0 0 0 .366Zm-6.34-1.829a.183.183 0 1 0 0-.366.183.183 0 0 0 0 .366Zm6.942 2.259a.128.128 0 0 0 .129-.13.128.128 0 1 0-.257 0c0 .072.057.13.128.13Zm-7.796-3.145a.128.128 0 0 0 .128-.13.128.128 0 1 0-.257 0c0 .072.057.13.129.13Zm-.258 1.618a.13.13 0 1 0 0-.258.13.13 0 0 0 0 .258Zm8.287.942a.13.13 0 1 0 0-.257.13.13 0 0 0 0 .258Zm-1.725.604a.182.182 0 0 0 .182-.183.182.182 0 1 0-.365 0c0 .101.082.183.183.183Zm.831.686a.233.233 0 1 0 0-.465.233.233 0 0 0 0 .465Zm-7.074-2.919a.233.233 0 1 0 0-.465.233.233 0 0 0 0 .465Zm8.056 2.891a.234.234 0 1 0 0-.467.234.234 0 0 0 0 .467Z" clip-rule="evenodd"/>
  <path stroke="#fff" stroke-linecap="round" stroke-width="4" d="M122.069 107.52s4.4 51.076 2.897 60.278"/>
</svg>
