<svg xmlns="http://www.w3.org/2000/svg" xml:space="preserve" fill-rule="evenodd" stroke-linejoin="round" stroke-miterlimit="2" clip-rule="evenodd" viewBox="0 0 64 64"><path fill="none" d="M0 0h64v64H0z"/><path fill="#091e42" d="m9.7 24.1 18.3 11 .2.2 1.2.7c.5.2.8.7.8 1.2V62a1.6 1.6 0 0 1-2.3 1.4h-.1L9.4 51.7c-.5-.2-.7-.7-.8-1.2V36.4l-6-3.7a.8.8 0 0 1-.1-1.3l6.2-7.1c.2-.3.6-.4 1-.2Zm44.6 0c.4-.2.8-.1 1 .2l6.2 7.1.1.1c.3.4.1 1-.2 1.2l-6 3.7v14.1c0 .5-.3 1-.7 1.2L36.2 63.3h-.1a1.6 1.6 0 0 1-2.3-1.4V37.3c0-.6.3-1 .8-1.3l1.2-.7.2-.2 18.3-11Z"/><path fill="#8cb900" d="M27 .5c7 4 11 8.7 12 14.2 1 5.2-1 10-5.7 14.7.1-1.7 0-3.7-.3-6-.4-2.5-1.2-5.6-2.4-9.5a1.4 1.4 0 1 0-2.6.9c1.2 3.7 2 6.7 2.3 9 .3 2.3.4 4.3.3 5.9-5.8-2.8-9.2-6.7-10-11.7-1-5.5 1.1-11.4 6.4-17.5Z"/></svg>