<?xml version="1.0" encoding="UTF-8" standalone="no"?><!DOCTYPE svg PUBLIC "-//W3C//DTD SVG 1.1//EN" "http://www.w3.org/Graphics/SVG/1.1/DTD/svg11.dtd"><svg width="100%" height="100%" viewBox="0 0 24 24" version="1.1" xmlns="http://www.w3.org/2000/svg" xmlns:xlink="http://www.w3.org/1999/xlink" xml:space="preserve" xmlns:serif="http://www.serif.com/" style="fill-rule:evenodd;clip-rule:evenodd;stroke-linejoin:round;stroke-miterlimit:2;"><path d="M12,2c-5.51,0 -10,4.49 -10,10c0,5.51 4.49,10 10,10c5.51,0 10,-4.49 10,-10c0,-5.51 -4.49,-10 -10,-10Zm-1.059,10l-2.297,-2.297c-0.292,-0.292 -0.292,-0.767 0,-1.059c0.292,-0.292 0.767,-0.292 1.059,0l2.297,2.297l2.297,-2.297c0.292,-0.292 0.767,-0.292 1.059,0c0.292,0.292 0.292,0.767 -0,1.059l-2.297,2.297l2.297,2.297c0.292,0.292 0.292,0.767 -0,1.059c-0.292,0.292 -0.767,0.292 -1.059,-0l-2.297,-2.297l-2.297,2.297c-0.292,0.292 -0.767,0.292 -1.059,-0c-0.292,-0.292 -0.292,-0.767 0,-1.059l2.297,-2.297Z" style="fill:#292d32;fill-rule:nonzero;"/></svg>