<?xml version="1.0" encoding="UTF-8" standalone="no"?><!DOCTYPE svg PUBLIC "-//W3C//DTD SVG 1.1//EN" "http://www.w3.org/Graphics/SVG/1.1/DTD/svg11.dtd"><svg width="100%" height="100%" viewBox="0 0 24 24" version="1.1" xmlns="http://www.w3.org/2000/svg" xmlns:xlink="http://www.w3.org/1999/xlink" xml:space="preserve" xmlns:serif="http://www.serif.com/" style="fill-rule:evenodd;clip-rule:evenodd;stroke-linejoin:round;stroke-miterlimit:2;"><path d="M17.79,22.75l-11.58,0c-2.74,0 -4.96,-2.23 -4.96,-4.97l0,-7.41c0,-1.36 0.84,-3.07 1.92,-3.91l5.39,-4.2c1.62,-1.26 4.21,-1.32 5.89,-0.14l6.18,4.33c1.19,0.83 2.12,2.61 2.12,4.06l0,7.28c0,2.73 -2.22,4.96 -4.96,4.96Zm-5.79,-4c0.41,-0 0.75,-0.34 0.75,-0.75l0,-3c0,-0.41 -0.34,-0.75 -0.75,-0.75c-0.41,-0 -0.75,0.34 -0.75,0.75l0,3c0,0.41 0.34,0.75 0.75,0.75Z" style="fill:#292d32;fill-rule:nonzero;"/></svg>