<?xml version="1.0" encoding="UTF-8" standalone="no"?><!DOCTYPE svg PUBLIC "-//W3C//DTD SVG 1.1//EN" "http://www.w3.org/Graphics/SVG/1.1/DTD/svg11.dtd"><svg width="100%" height="100%" viewBox="0 0 24 24" version="1.1" xmlns="http://www.w3.org/2000/svg" xmlns:xlink="http://www.w3.org/1999/xlink" xml:space="preserve" xmlns:serif="http://www.serif.com/" style="fill-rule:evenodd;clip-rule:evenodd;stroke-linejoin:round;stroke-miterlimit:2;"><path d="M5.25,9.342l0,-1.342c0,-2.9 0.7,-6.75 6.75,-6.75c6.05,0 6.75,3.85 6.75,6.75l0,1.342c3.025,0.368 4,1.896 4,5.658l0,2c0,4.41 -1.34,5.75 -5.75,5.75l-10,0c-4.41,0 -5.75,-1.34 -5.75,-5.75l0,-2c0,-3.762 0.975,-5.29 4,-5.658Zm6.75,9.908c1.79,0 3.25,-1.46 3.25,-3.25c0,-1.79 -1.46,-3.25 -3.25,-3.25c-1.79,0 -3.25,1.46 -3.25,3.25c0,1.79 1.46,3.25 3.25,3.25Zm0,-5c0.96,0 1.75,0.79 1.75,1.75c0,0.96 -0.79,1.75 -1.75,1.75c-0.96,0 -1.75,-0.79 -1.75,-1.75c0,-0.96 0.79,-1.75 1.75,-1.75Zm5.25,-4.998l0,-1.252c0,-3.15 -0.89,-5.25 -5.25,-5.25c-4.36,0 -5.25,2.1 -5.25,5.25l0,1.252c0.082,-0.002 0.165,-0.002 0.25,-0.002l10,0c0.085,0 0.168,0 0.25,0.002Z" style="fill-rule:nonzero;"/></svg>