<svg width="21" height="20" viewBox="0 0 21 20" fill="none" xmlns="http://www.w3.org/2000/svg">
<path fill-rule="evenodd" clip-rule="evenodd" d="M9.5 18C14.1944 18 18 14.1944 18 9.5C18 4.80558 14.1944 1 9.5 1C4.80558 1 1 4.80558 1 9.5C1 14.1944 4.80558 18 9.5 18ZM19 9.5C19 14.7467 14.7467 19 9.5 19C4.25329 19 0 14.7467 0 9.5C0 4.25329 4.25329 0 9.5 0C14.7467 0 19 4.25329 19 9.5ZM9.5 17C13.6421 17 17 13.6421 17 9.5C17 5.35786 13.6421 2 9.5 2C5.35786 2 2 5.35786 2 9.5C2 13.6421 5.35786 17 9.5 17ZM18.8096 19.8001C18.9396 19.9301 19.1196 20.0001 19.2996 20.0001C19.4796 20.0001 19.6596 19.9301 19.7996 19.8001C20.0696 19.5201 20.0696 19.0801 19.7996 18.8101L17.9396 16.9501C17.6596 16.6801 17.2196 16.6801 16.9496 16.9501C16.6796 17.2301 16.6796 17.6701 16.9496 17.9401L18.8096 19.8001Z" fill="#464851"/>
</svg>
